<?xml version="1.0" encoding="UTF-8"?>
<svg xmlns="http://www.w3.org/2000/svg" xmlns:xlink="http://www.w3.org/1999/xlink" width="236.25pt" height="186pt" viewBox="0 0 236.25 186" version="1.1">
<g id="surface1">
<path style=" stroke:none;fill-rule:nonzero;fill:rgb(100%,100%,100%);fill-opacity:1;" d="M 0.375 81.375 L 47.324219 81.375 L 47.324219 96.375 L 0.375 96.375 Z M 0.375 81.375 "/>
<path style=" stroke:none;fill-rule:nonzero;fill:rgb(100%,100%,100%);fill-opacity:1;" d="M 0.375 96.375 L 235.125 96.375 L 235.125 185.625 L 0.375 185.625 Z M 0.375 96.375 "/>
<path style="fill:none;stroke-width:1;stroke-linecap:butt;stroke-linejoin:miter;stroke:rgb(0%,0%,0%);stroke-opacity:1;stroke-miterlimit:10;" d="M 0 128 L 313 128 L 313 247 L 0 247 L 0 108 L 62.598958 108 L 62.598958 128 " transform="matrix(0.75,0,0,0.75,0.375,0.375)"/>
<path style=" stroke:none;fill-rule:nonzero;fill:rgb(0%,0%,0%);fill-opacity:1;" d="M 108.800781 101.21875 C 108.550781 99.78125 107.722656 99.078125 106.269531 99.078125 C 105.394531 99.078125 104.691406 99.359375 104.191406 99.90625 C 103.597656 100.546875 103.285156 101.484375 103.285156 102.546875 C 103.285156 103.625 103.613281 104.546875 104.222656 105.1875 C 104.738281 105.71875 105.378906 105.953125 106.238281 105.953125 C 107.847656 105.953125 108.738281 105.09375 108.941406 103.359375 L 108.082031 103.359375 C 108.003906 103.8125 107.910156 104.109375 107.785156 104.375 C 107.503906 104.90625 106.957031 105.21875 106.253906 105.21875 C 104.941406 105.21875 104.113281 104.171875 104.113281 102.53125 C 104.113281 100.859375 104.894531 99.8125 106.175781 99.8125 C 106.707031 99.8125 107.207031 99.96875 107.472656 100.234375 C 107.722656 100.453125 107.847656 100.734375 107.957031 101.21875 Z M 108.800781 101.21875 "/>
<path style=" stroke:none;fill-rule:nonzero;fill:rgb(0%,0%,0%);fill-opacity:1;" d="M 111.796875 100.90625 C 110.453125 100.90625 109.671875 101.84375 109.671875 103.421875 C 109.671875 105.015625 110.453125 105.953125 111.796875 105.953125 C 113.125 105.953125 113.9375 105.015625 113.9375 103.46875 C 113.9375 101.828125 113.15625 100.90625 111.796875 100.90625 Z M 111.796875 101.59375 C 112.640625 101.59375 113.15625 102.28125 113.15625 103.453125 C 113.15625 104.578125 112.625 105.265625 111.796875 105.265625 C 110.96875 105.265625 110.453125 104.578125 110.453125 103.421875 C 110.453125 102.28125 110.96875 101.59375 111.796875 101.59375 Z M 111.796875 101.59375 "/>
<path style=" stroke:none;fill-rule:nonzero;fill:rgb(0%,0%,0%);fill-opacity:1;" d="M 118.695312 105.75 L 118.695312 101.03125 L 117.945312 101.03125 L 117.945312 103.703125 C 117.945312 104.671875 117.445312 105.296875 116.648438 105.296875 C 116.054688 105.296875 115.679688 104.9375 115.679688 104.375 L 115.679688 101.03125 L 114.929688 101.03125 L 114.929688 104.671875 C 114.929688 105.453125 115.523438 105.953125 116.445312 105.953125 C 117.132812 105.953125 117.570312 105.71875 118.007812 105.09375 L 118.007812 105.75 Z M 118.695312 105.75 "/>
<path style=" stroke:none;fill-rule:nonzero;fill:rgb(0%,0%,0%);fill-opacity:1;" d="M 119.980469 101.03125 L 119.980469 105.75 L 120.730469 105.75 L 120.730469 103.296875 C 120.746094 102.171875 121.214844 101.65625 122.246094 101.6875 L 122.246094 100.921875 C 122.121094 100.90625 122.042969 100.90625 121.949219 100.90625 C 121.464844 100.90625 121.105469 101.1875 120.667969 101.890625 L 120.667969 101.03125 Z M 119.980469 101.03125 "/>
<path style=" stroke:none;fill-rule:nonzero;fill:rgb(0%,0%,0%);fill-opacity:1;" d="M 126.289062 102.34375 C 126.289062 101.421875 125.679688 100.90625 124.585938 100.90625 C 123.492188 100.90625 122.773438 101.46875 122.773438 102.34375 C 122.773438 103.078125 123.148438 103.421875 124.273438 103.703125 L 124.976562 103.875 C 125.492188 104 125.695312 104.1875 125.695312 104.515625 C 125.695312 104.96875 125.257812 105.265625 124.601562 105.265625 C 124.195312 105.265625 123.851562 105.140625 123.664062 104.953125 C 123.554688 104.8125 123.492188 104.671875 123.445312 104.34375 L 122.664062 104.34375 C 122.695312 105.4375 123.304688 105.953125 124.539062 105.953125 C 125.726562 105.953125 126.476562 105.375 126.476562 104.46875 C 126.476562 103.765625 126.085938 103.375 125.148438 103.15625 L 124.429688 102.984375 C 123.820312 102.828125 123.554688 102.640625 123.554688 102.296875 C 123.554688 101.859375 123.945312 101.59375 124.554688 101.59375 C 125.164062 101.59375 125.476562 101.859375 125.507812 102.34375 Z M 126.289062 102.34375 "/>
<path style=" stroke:none;fill-rule:nonzero;fill:rgb(0%,0%,0%);fill-opacity:1;" d="M 131.460938 103.640625 C 131.460938 102.921875 131.414062 102.484375 131.273438 102.140625 C 130.976562 101.359375 130.257812 100.90625 129.367188 100.90625 C 128.054688 100.90625 127.210938 101.890625 127.210938 103.453125 C 127.210938 105.015625 128.023438 105.953125 129.351562 105.953125 C 130.429688 105.953125 131.179688 105.34375 131.367188 104.3125 L 130.617188 104.3125 C 130.414062 104.9375 129.976562 105.265625 129.382812 105.265625 C 128.898438 105.265625 128.492188 105.046875 128.242188 104.65625 C 128.070312 104.375 128.007812 104.109375 127.992188 103.640625 Z M 128.007812 103.03125 C 128.070312 102.15625 128.601562 101.59375 129.367188 101.59375 C 130.132812 101.59375 130.664062 102.1875 130.664062 103.03125 Z M 128.007812 103.03125 "/>
<path style=" stroke:none;fill-rule:nonzero;fill:rgb(100%,100%,100%);fill-opacity:1;" d="M 13.875 115.125 L 30.074219 115.125 L 30.074219 130.125 L 13.875 130.125 Z M 13.875 115.125 "/>
<path style=" stroke:none;fill-rule:nonzero;fill:rgb(100%,100%,100%);fill-opacity:1;" d="M 13.875 130.125 L 94.875 130.125 L 94.875 172.875 L 13.875 172.875 Z M 13.875 130.125 "/>
<path style="fill:none;stroke-width:1;stroke-linecap:butt;stroke-linejoin:miter;stroke:rgb(0%,0%,0%);stroke-opacity:1;stroke-miterlimit:10;" d="M 18 173 L 126 173 L 126 230 L 18 230 L 18 153 L 39.598958 153 L 39.598958 173 " transform="matrix(0.75,0,0,0.75,0.375,0.375)"/>
<path style=" stroke:none;fill-rule:nonzero;fill:rgb(0%,0%,0%);fill-opacity:1;" d="M 42.554688 136.515625 L 45.695312 136.515625 L 45.695312 135.78125 L 42.554688 135.78125 L 42.554688 133.671875 L 46.132812 133.671875 L 46.132812 132.9375 L 41.726562 132.9375 L 41.726562 139.5 L 42.554688 139.5 Z M 42.554688 136.515625 "/>
<path style=" stroke:none;fill-rule:nonzero;fill:rgb(0%,0%,0%);fill-opacity:1;" d="M 48.867188 134.65625 C 47.523438 134.65625 46.742188 135.59375 46.742188 137.171875 C 46.742188 138.765625 47.523438 139.703125 48.867188 139.703125 C 50.195312 139.703125 51.007812 138.765625 51.007812 137.21875 C 51.007812 135.578125 50.226562 134.65625 48.867188 134.65625 Z M 48.867188 135.34375 C 49.710938 135.34375 50.226562 136.03125 50.226562 137.203125 C 50.226562 138.328125 49.695312 139.015625 48.867188 139.015625 C 48.039062 139.015625 47.523438 138.328125 47.523438 137.171875 C 47.523438 136.03125 48.039062 135.34375 48.867188 135.34375 Z M 48.867188 135.34375 "/>
<path style=" stroke:none;fill-rule:nonzero;fill:rgb(0%,0%,0%);fill-opacity:1;" d="M 52.042969 134.78125 L 52.042969 139.5 L 52.792969 139.5 L 52.792969 137.046875 C 52.808594 135.921875 53.277344 135.40625 54.308594 135.4375 L 54.308594 134.671875 C 54.183594 134.65625 54.105469 134.65625 54.011719 134.65625 C 53.527344 134.65625 53.167969 134.9375 52.730469 135.640625 L 52.730469 134.78125 Z M 52.042969 134.78125 "/>
<path style=" stroke:none;fill-rule:nonzero;fill:rgb(0%,0%,0%);fill-opacity:1;" d="M 58.757812 139.5 L 58.757812 134.78125 L 58.007812 134.78125 L 58.007812 137.453125 C 58.007812 138.421875 57.507812 139.046875 56.710938 139.046875 C 56.117188 139.046875 55.742188 138.6875 55.742188 138.125 L 55.742188 134.78125 L 54.992188 134.78125 L 54.992188 138.421875 C 54.992188 139.203125 55.585938 139.703125 56.507812 139.703125 C 57.195312 139.703125 57.632812 139.46875 58.070312 138.84375 L 58.070312 139.5 Z M 58.757812 139.5 "/>
<path style=" stroke:none;fill-rule:nonzero;fill:rgb(0%,0%,0%);fill-opacity:1;" d="M 60.042969 134.78125 L 60.042969 139.5 L 60.808594 139.5 L 60.808594 136.53125 C 60.808594 135.859375 61.292969 135.3125 61.917969 135.3125 C 62.464844 135.3125 62.777344 135.640625 62.777344 136.25 L 62.777344 139.5 L 63.542969 139.5 L 63.542969 136.53125 C 63.542969 135.859375 64.027344 135.3125 64.652344 135.3125 C 65.199219 135.3125 65.527344 135.65625 65.527344 136.25 L 65.527344 139.5 L 66.277344 139.5 L 66.277344 135.96875 C 66.277344 135.109375 65.792969 134.65625 64.902344 134.65625 C 64.277344 134.65625 63.902344 134.84375 63.464844 135.375 C 63.183594 134.859375 62.808594 134.65625 62.183594 134.65625 C 61.558594 134.65625 61.136719 134.890625 60.746094 135.453125 L 60.746094 134.78125 Z M 60.042969 134.78125 "/>
<path style=" stroke:none;fill-rule:nonzero;fill:rgb(100%,100%,100%);fill-opacity:1;" d="M 143.625 115.125 L 159.824219 115.125 L 159.824219 130.125 L 143.625 130.125 Z M 143.625 115.125 "/>
<path style=" stroke:none;fill-rule:nonzero;fill:rgb(100%,100%,100%);fill-opacity:1;" d="M 143.625 130.125 L 224.625 130.125 L 224.625 172.875 L 143.625 172.875 Z M 143.625 130.125 "/>
<path style="fill:none;stroke-width:1;stroke-linecap:butt;stroke-linejoin:miter;stroke:rgb(0%,0%,0%);stroke-opacity:1;stroke-miterlimit:10;" d="M 191 173 L 299 173 L 299 230 L 191 230 L 191 153 L 212.598958 153 L 212.598958 173 " transform="matrix(0.75,0,0,0.75,0.375,0.375)"/>
<path style=" stroke:none;fill-rule:nonzero;fill:rgb(0%,0%,0%);fill-opacity:1;" d="M 167.042969 137.53125 L 167.714844 139.5 L 168.652344 139.5 L 166.355469 132.9375 L 165.277344 132.9375 L 162.933594 139.5 L 163.824219 139.5 L 164.511719 137.53125 Z M 166.808594 136.828125 L 164.714844 136.828125 L 165.808594 133.84375 Z M 166.808594 136.828125 "/>
<path style=" stroke:none;fill-rule:nonzero;fill:rgb(0%,0%,0%);fill-opacity:1;" d="M 172.71875 136.09375 C 172.71875 135.171875 172.109375 134.65625 171.015625 134.65625 C 169.921875 134.65625 169.203125 135.21875 169.203125 136.09375 C 169.203125 136.828125 169.578125 137.171875 170.703125 137.453125 L 171.40625 137.625 C 171.921875 137.75 172.125 137.9375 172.125 138.265625 C 172.125 138.71875 171.6875 139.015625 171.03125 139.015625 C 170.625 139.015625 170.28125 138.890625 170.09375 138.703125 C 169.984375 138.5625 169.921875 138.421875 169.875 138.09375 L 169.09375 138.09375 C 169.125 139.1875 169.734375 139.703125 170.96875 139.703125 C 172.15625 139.703125 172.90625 139.125 172.90625 138.21875 C 172.90625 137.515625 172.515625 137.125 171.578125 136.90625 L 170.859375 136.734375 C 170.25 136.578125 169.984375 136.390625 169.984375 136.046875 C 169.984375 135.609375 170.375 135.34375 170.984375 135.34375 C 171.59375 135.34375 171.90625 135.609375 171.9375 136.09375 Z M 172.71875 136.09375 "/>
<path style=" stroke:none;fill-rule:nonzero;fill:rgb(0%,0%,0%);fill-opacity:1;" d="M 177.21875 136.09375 C 177.21875 135.171875 176.609375 134.65625 175.515625 134.65625 C 174.421875 134.65625 173.703125 135.21875 173.703125 136.09375 C 173.703125 136.828125 174.078125 137.171875 175.203125 137.453125 L 175.90625 137.625 C 176.421875 137.75 176.625 137.9375 176.625 138.265625 C 176.625 138.71875 176.1875 139.015625 175.53125 139.015625 C 175.125 139.015625 174.78125 138.890625 174.59375 138.703125 C 174.484375 138.5625 174.421875 138.421875 174.375 138.09375 L 173.59375 138.09375 C 173.625 139.1875 174.234375 139.703125 175.46875 139.703125 C 176.65625 139.703125 177.40625 139.125 177.40625 138.21875 C 177.40625 137.515625 177.015625 137.125 176.078125 136.90625 L 175.359375 136.734375 C 174.75 136.578125 174.484375 136.390625 174.484375 136.046875 C 174.484375 135.609375 174.875 135.34375 175.484375 135.34375 C 176.09375 135.34375 176.40625 135.609375 176.4375 136.09375 Z M 177.21875 136.09375 "/>
<path style=" stroke:none;fill-rule:nonzero;fill:rgb(0%,0%,0%);fill-opacity:1;" d="M 179.125 134.78125 L 178.390625 134.78125 L 178.390625 139.5 L 179.125 139.5 Z M 179.125 132.9375 L 178.375 132.9375 L 178.375 133.890625 L 179.125 133.890625 Z M 179.125 132.9375 "/>
<path style=" stroke:none;fill-rule:nonzero;fill:rgb(0%,0%,0%);fill-opacity:1;" d="M 183.417969 134.78125 L 183.417969 135.46875 C 183.042969 134.90625 182.621094 134.65625 182.027344 134.65625 C 180.886719 134.65625 180.089844 135.71875 180.089844 137.21875 C 180.089844 138.015625 180.277344 138.59375 180.683594 139.0625 C 181.042969 139.484375 181.480469 139.703125 181.980469 139.703125 C 182.542969 139.703125 182.949219 139.453125 183.339844 138.859375 L 183.339844 139.109375 C 183.339844 140.359375 182.996094 140.828125 182.058594 140.828125 C 181.417969 140.828125 181.089844 140.578125 181.011719 140.046875 L 180.246094 140.046875 C 180.324219 140.90625 181.011719 141.46875 182.042969 141.46875 C 182.730469 141.46875 183.308594 141.234375 183.605469 140.859375 C 183.964844 140.421875 184.105469 139.828125 184.105469 138.71875 L 184.105469 134.78125 Z M 182.105469 135.34375 C 182.886719 135.34375 183.339844 136.015625 183.339844 137.203125 C 183.339844 138.34375 182.886719 139.015625 182.105469 139.015625 C 181.324219 139.015625 180.871094 138.34375 180.871094 137.171875 C 180.871094 136.03125 181.324219 135.34375 182.105469 135.34375 Z M 182.105469 135.34375 "/>
<path style=" stroke:none;fill-rule:nonzero;fill:rgb(0%,0%,0%);fill-opacity:1;" d="M 185.40625 134.78125 L 185.40625 139.5 L 186.171875 139.5 L 186.171875 136.53125 C 186.171875 135.859375 186.65625 135.3125 187.28125 135.3125 C 187.828125 135.3125 188.140625 135.640625 188.140625 136.25 L 188.140625 139.5 L 188.90625 139.5 L 188.90625 136.53125 C 188.90625 135.859375 189.390625 135.3125 190.015625 135.3125 C 190.5625 135.3125 190.890625 135.65625 190.890625 136.25 L 190.890625 139.5 L 191.640625 139.5 L 191.640625 135.96875 C 191.640625 135.109375 191.15625 134.65625 190.265625 134.65625 C 189.640625 134.65625 189.265625 134.84375 188.828125 135.375 C 188.546875 134.859375 188.171875 134.65625 187.546875 134.65625 C 186.921875 134.65625 186.5 134.890625 186.109375 135.453125 L 186.109375 134.78125 Z M 185.40625 134.78125 "/>
<path style=" stroke:none;fill-rule:nonzero;fill:rgb(0%,0%,0%);fill-opacity:1;" d="M 196.890625 137.390625 C 196.890625 136.671875 196.84375 136.234375 196.703125 135.890625 C 196.40625 135.109375 195.6875 134.65625 194.796875 134.65625 C 193.484375 134.65625 192.640625 135.640625 192.640625 137.203125 C 192.640625 138.765625 193.453125 139.703125 194.78125 139.703125 C 195.859375 139.703125 196.609375 139.09375 196.796875 138.0625 L 196.046875 138.0625 C 195.84375 138.6875 195.40625 139.015625 194.8125 139.015625 C 194.328125 139.015625 193.921875 138.796875 193.671875 138.40625 C 193.5 138.125 193.4375 137.859375 193.421875 137.390625 Z M 193.4375 136.78125 C 193.5 135.90625 194.03125 135.34375 194.796875 135.34375 C 195.5625 135.34375 196.09375 135.9375 196.09375 136.78125 Z M 193.4375 136.78125 "/>
<path style=" stroke:none;fill-rule:nonzero;fill:rgb(0%,0%,0%);fill-opacity:1;" d="M 197.910156 134.78125 L 197.910156 139.5 L 198.675781 139.5 L 198.675781 136.90625 C 198.675781 135.9375 199.175781 135.3125 199.941406 135.3125 C 200.550781 135.3125 200.925781 135.671875 200.925781 136.234375 L 200.925781 139.5 L 201.675781 139.5 L 201.675781 135.9375 C 201.675781 135.15625 201.082031 134.65625 200.175781 134.65625 C 199.472656 134.65625 199.019531 134.921875 198.613281 135.578125 L 198.613281 134.78125 Z M 197.910156 134.78125 "/>
<path style=" stroke:none;fill-rule:nonzero;fill:rgb(0%,0%,0%);fill-opacity:1;" d="M 204.570312 134.78125 L 203.804688 134.78125 L 203.804688 133.484375 L 203.054688 133.484375 L 203.054688 134.78125 L 202.414062 134.78125 L 202.414062 135.390625 L 203.054688 135.390625 L 203.054688 138.953125 C 203.054688 139.453125 203.382812 139.703125 203.960938 139.703125 C 204.164062 139.703125 204.320312 139.6875 204.570312 139.640625 L 204.570312 139.015625 C 204.460938 139.046875 204.367188 139.046875 204.210938 139.046875 C 203.898438 139.046875 203.804688 138.953125 203.804688 138.625 L 203.804688 135.390625 L 204.570312 135.390625 Z M 204.570312 134.78125 "/>
<path style=" stroke:none;fill-rule:nonzero;fill:rgb(100%,100%,100%);fill-opacity:1;" d="M 4.125 0.375 L 22.273438 0.375 L 22.273438 15.375 L 4.125 15.375 Z M 4.125 0.375 "/>
<path style=" stroke:none;fill-rule:nonzero;fill:rgb(100%,100%,100%);fill-opacity:1;" d="M 4.125 15.375 L 94.875 15.375 L 94.875 59.578125 L 4.125 59.578125 Z M 4.125 15.375 "/>
<path style="fill:none;stroke-width:1;stroke-linecap:butt;stroke-linejoin:miter;stroke:rgb(0%,0%,0%);stroke-opacity:1;stroke-miterlimit:10;" d="M 5 20 L 126 20 L 126 78.9375 L 5 78.9375 L 5 0 L 29.197917 0 L 29.197917 20 " transform="matrix(0.75,0,0,0.75,0.375,0.375)"/>
<path style=" stroke:none;fill-rule:nonzero;fill:rgb(0%,0%,0%);fill-opacity:1;" d="M 44.476562 24.75 L 44.476562 20.03125 L 43.726562 20.03125 L 43.726562 22.703125 C 43.726562 23.671875 43.226562 24.296875 42.429688 24.296875 C 41.835938 24.296875 41.460938 23.9375 41.460938 23.375 L 41.460938 20.03125 L 40.710938 20.03125 L 40.710938 23.671875 C 40.710938 24.453125 41.304688 24.953125 42.226562 24.953125 C 42.914062 24.953125 43.351562 24.71875 43.789062 24.09375 L 43.789062 24.75 Z M 44.476562 24.75 "/>
<path style=" stroke:none;fill-rule:nonzero;fill:rgb(0%,0%,0%);fill-opacity:1;" d="M 49.074219 21.34375 C 49.074219 20.421875 48.464844 19.90625 47.371094 19.90625 C 46.277344 19.90625 45.558594 20.46875 45.558594 21.34375 C 45.558594 22.078125 45.933594 22.421875 47.058594 22.703125 L 47.761719 22.875 C 48.277344 23 48.480469 23.1875 48.480469 23.515625 C 48.480469 23.96875 48.042969 24.265625 47.386719 24.265625 C 46.980469 24.265625 46.636719 24.140625 46.449219 23.953125 C 46.339844 23.8125 46.277344 23.671875 46.230469 23.34375 L 45.449219 23.34375 C 45.480469 24.4375 46.089844 24.953125 47.324219 24.953125 C 48.511719 24.953125 49.261719 24.375 49.261719 23.46875 C 49.261719 22.765625 48.871094 22.375 47.933594 22.15625 L 47.214844 21.984375 C 46.605469 21.828125 46.339844 21.640625 46.339844 21.296875 C 46.339844 20.859375 46.730469 20.59375 47.339844 20.59375 C 47.949219 20.59375 48.261719 20.859375 48.292969 21.34375 Z M 49.074219 21.34375 "/>
<path style=" stroke:none;fill-rule:nonzero;fill:rgb(0%,0%,0%);fill-opacity:1;" d="M 54.246094 22.640625 C 54.246094 21.921875 54.199219 21.484375 54.058594 21.140625 C 53.761719 20.359375 53.042969 19.90625 52.152344 19.90625 C 50.839844 19.90625 49.996094 20.890625 49.996094 22.453125 C 49.996094 24.015625 50.808594 24.953125 52.136719 24.953125 C 53.214844 24.953125 53.964844 24.34375 54.152344 23.3125 L 53.402344 23.3125 C 53.199219 23.9375 52.761719 24.265625 52.167969 24.265625 C 51.683594 24.265625 51.277344 24.046875 51.027344 23.65625 C 50.855469 23.375 50.792969 23.109375 50.777344 22.640625 Z M 50.792969 22.03125 C 50.855469 21.15625 51.386719 20.59375 52.152344 20.59375 C 52.917969 20.59375 53.449219 21.1875 53.449219 22.03125 Z M 50.792969 22.03125 "/>
<path style=" stroke:none;fill-rule:nonzero;fill:rgb(0%,0%,0%);fill-opacity:1;" d="M 55.265625 20.03125 L 55.265625 24.75 L 56.015625 24.75 L 56.015625 22.296875 C 56.03125 21.171875 56.5 20.65625 57.53125 20.6875 L 57.53125 19.921875 C 57.40625 19.90625 57.328125 19.90625 57.234375 19.90625 C 56.75 19.90625 56.390625 20.1875 55.953125 20.890625 L 55.953125 20.03125 Z M 55.265625 20.03125 "/>
<path style=" stroke:none;fill-rule:nonzero;fill:rgb(100%,100%,100%);fill-opacity:1;" d="M 134.625 0.375 L 152.175781 0.375 L 152.175781 15.375 L 134.625 15.375 Z M 134.625 0.375 "/>
<path style=" stroke:none;fill-rule:nonzero;fill:rgb(100%,100%,100%);fill-opacity:1;" d="M 134.625 15.375 L 222.375 15.375 L 222.375 59.109375 L 134.625 59.109375 Z M 134.625 15.375 "/>
<path style="fill:none;stroke-width:1;stroke-linecap:butt;stroke-linejoin:miter;stroke:rgb(0%,0%,0%);stroke-opacity:1;stroke-miterlimit:10;" d="M 179 20 L 296 20 L 296 78.3125 L 179 78.3125 L 179 0 L 202.401042 0 L 202.401042 20 " transform="matrix(0.75,0,0,0.75,0.375,0.375)"/>
<path style=" stroke:none;fill-rule:nonzero;fill:rgb(0%,0%,0%);fill-opacity:1;" d="M 171.328125 20.109375 C 171.328125 19.671875 171.3125 19.53125 171.15625 19.234375 C 170.796875 18.484375 170.03125 18.078125 168.9375 18.078125 C 167.484375 18.078125 166.59375 18.8125 166.59375 20 C 166.59375 20.8125 167.015625 21.3125 167.890625 21.53125 L 169.515625 21.96875 C 170.359375 22.1875 170.71875 22.515625 170.71875 23.03125 C 170.71875 23.375 170.53125 23.734375 170.25 23.9375 C 169.984375 24.125 169.578125 24.21875 169.046875 24.21875 C 168.328125 24.21875 167.84375 24.046875 167.53125 23.671875 C 167.296875 23.375 167.1875 23.0625 167.1875 22.65625 L 166.40625 22.65625 C 166.40625 23.265625 166.53125 23.65625 166.78125 24.015625 C 167.234375 24.640625 168 24.953125 169 24.953125 C 169.78125 24.953125 170.421875 24.78125 170.84375 24.453125 C 171.28125 24.109375 171.5625 23.515625 171.5625 22.953125 C 171.5625 22.140625 171.046875 21.546875 170.15625 21.296875 L 168.515625 20.859375 C 167.71875 20.640625 167.4375 20.390625 167.4375 19.890625 C 167.4375 19.21875 168.015625 18.78125 168.90625 18.78125 C 169.953125 18.78125 170.53125 19.25 170.546875 20.109375 Z M 171.328125 20.109375 "/>
<path style=" stroke:none;fill-rule:nonzero;fill:rgb(0%,0%,0%);fill-opacity:1;" d="M 174.425781 19.90625 C 173.082031 19.90625 172.300781 20.84375 172.300781 22.421875 C 172.300781 24.015625 173.082031 24.953125 174.425781 24.953125 C 175.753906 24.953125 176.566406 24.015625 176.566406 22.46875 C 176.566406 20.828125 175.785156 19.90625 174.425781 19.90625 Z M 174.425781 20.59375 C 175.269531 20.59375 175.785156 21.28125 175.785156 22.453125 C 175.785156 23.578125 175.253906 24.265625 174.425781 24.265625 C 173.597656 24.265625 173.082031 23.578125 173.082031 22.421875 C 173.082031 21.28125 173.597656 20.59375 174.425781 20.59375 Z M 174.425781 20.59375 "/>
<path style=" stroke:none;fill-rule:nonzero;fill:rgb(0%,0%,0%);fill-opacity:1;" d="M 181.210938 21.625 C 181.179688 21.15625 181.085938 20.859375 180.898438 20.59375 C 180.570312 20.15625 180.007812 19.90625 179.351562 19.90625 C 178.070312 19.90625 177.257812 20.90625 177.257812 22.46875 C 177.257812 24 178.070312 24.953125 179.335938 24.953125 C 180.460938 24.953125 181.179688 24.28125 181.273438 23.125 L 180.507812 23.125 C 180.382812 23.890625 180.007812 24.265625 179.367188 24.265625 C 178.539062 24.265625 178.039062 23.59375 178.039062 22.46875 C 178.039062 21.296875 178.523438 20.59375 179.335938 20.59375 C 179.976562 20.59375 180.367188 20.96875 180.460938 21.625 Z M 181.210938 21.625 "/>
<path style=" stroke:none;fill-rule:nonzero;fill:rgb(0%,0%,0%);fill-opacity:1;" d="M 182.820312 20.03125 L 182.085938 20.03125 L 182.085938 24.75 L 182.820312 24.75 Z M 182.820312 18.1875 L 182.070312 18.1875 L 182.070312 19.140625 L 182.820312 19.140625 Z M 182.820312 18.1875 "/>
<path style=" stroke:none;fill-rule:nonzero;fill:rgb(0%,0%,0%);fill-opacity:1;" d="M 188.285156 24.3125 C 188.207031 24.328125 188.175781 24.328125 188.128906 24.328125 C 187.863281 24.328125 187.722656 24.1875 187.722656 23.953125 L 187.722656 21.1875 C 187.722656 20.34375 187.113281 19.90625 185.941406 19.90625 C 185.253906 19.90625 184.707031 20.09375 184.378906 20.453125 C 184.160156 20.6875 184.082031 20.96875 184.050781 21.421875 L 184.816406 21.421875 C 184.878906 20.859375 185.222656 20.59375 185.925781 20.59375 C 186.597656 20.59375 186.972656 20.84375 186.972656 21.296875 L 186.972656 21.484375 C 186.957031 21.8125 186.800781 21.9375 186.191406 22.015625 C 185.128906 22.15625 184.972656 22.1875 184.675781 22.296875 C 184.128906 22.53125 183.847656 22.953125 183.847656 23.5625 C 183.847656 24.421875 184.441406 24.953125 185.394531 24.953125 C 185.988281 24.953125 186.472656 24.75 187.003906 24.265625 C 187.050781 24.75 187.285156 24.953125 187.769531 24.953125 C 187.941406 24.953125 188.035156 24.9375 188.285156 24.875 Z M 186.972656 23.265625 C 186.972656 23.515625 186.894531 23.671875 186.675781 23.875 C 186.363281 24.15625 186.003906 24.296875 185.566406 24.296875 C 184.972656 24.296875 184.628906 24.015625 184.628906 23.546875 C 184.628906 23.046875 184.957031 22.796875 185.769531 22.6875 C 186.566406 22.578125 186.722656 22.53125 186.972656 22.421875 Z M 186.972656 23.265625 "/>
<path style=" stroke:none;fill-rule:nonzero;fill:rgb(0%,0%,0%);fill-opacity:1;" d="M 189.851562 18.1875 L 189.085938 18.1875 L 189.085938 24.75 L 189.851562 24.75 Z M 189.851562 18.1875 "/>
<path style=" stroke:none;fill-rule:nonzero;fill:rgb(47.058824%,47.058824%,47.058824%);fill-opacity:1;" d="M 7.40625 11.625 L 4.921875 5.1875 L 5.84375 5.1875 L 7.515625 9.859375 C 7.648438 10.234375 7.757812 10.589844 7.84375 10.921875 C 7.945312 10.570312 8.066406 10.214844 8.203125 9.859375 L 9.9375 5.1875 L 10.8125 5.1875 L 8.28125 11.625 Z M 7.40625 11.625 "/>
<path style=" stroke:none;fill-rule:nonzero;fill:rgb(47.058824%,47.058824%,47.058824%);fill-opacity:1;" d="M 11.472656 6.09375 L 11.472656 5.1875 L 12.269531 5.1875 L 12.269531 6.09375 Z M 11.472656 11.625 L 11.472656 6.953125 L 12.269531 6.953125 L 12.269531 11.625 Z M 11.472656 11.625 "/>
<path style=" stroke:none;fill-rule:nonzero;fill:rgb(47.058824%,47.058824%,47.058824%);fill-opacity:1;" d="M 13.160156 10.234375 L 13.941406 10.109375 C 13.980469 10.421875 14.101562 10.664062 14.300781 10.828125 C 14.507812 10.996094 14.789062 11.078125 15.144531 11.078125 C 15.507812 11.078125 15.777344 11.007812 15.957031 10.859375 C 16.132812 10.714844 16.222656 10.542969 16.222656 10.34375 C 16.222656 10.15625 16.144531 10.015625 15.988281 9.921875 C 15.871094 9.851562 15.601562 9.757812 15.175781 9.640625 C 14.589844 9.496094 14.183594 9.371094 13.957031 9.265625 C 13.738281 9.164062 13.570312 9.015625 13.457031 8.828125 C 13.339844 8.640625 13.285156 8.433594 13.285156 8.203125 C 13.285156 7.996094 13.332031 7.804688 13.425781 7.625 C 13.519531 7.449219 13.648438 7.296875 13.816406 7.171875 C 13.941406 7.089844 14.105469 7.015625 14.316406 6.953125 C 14.535156 6.890625 14.761719 6.859375 15.003906 6.859375 C 15.367188 6.859375 15.683594 6.914062 15.957031 7.015625 C 16.238281 7.121094 16.445312 7.261719 16.582031 7.4375 C 16.714844 7.617188 16.808594 7.855469 16.863281 8.15625 L 16.082031 8.265625 C 16.050781 8.027344 15.945312 7.839844 15.769531 7.703125 C 15.601562 7.570312 15.367188 7.5 15.066406 7.5 C 14.699219 7.5 14.441406 7.5625 14.285156 7.6875 C 14.128906 7.804688 14.050781 7.945312 14.050781 8.109375 C 14.050781 8.214844 14.082031 8.304688 14.144531 8.375 C 14.207031 8.46875 14.308594 8.542969 14.457031 8.59375 C 14.527344 8.625 14.757812 8.695312 15.144531 8.796875 C 15.707031 8.945312 16.097656 9.0625 16.316406 9.15625 C 16.542969 9.25 16.722656 9.390625 16.847656 9.578125 C 16.972656 9.757812 17.035156 9.980469 17.035156 10.25 C 17.035156 10.523438 16.957031 10.773438 16.800781 11 C 16.644531 11.230469 16.417969 11.414062 16.128906 11.546875 C 15.847656 11.671875 15.519531 11.734375 15.144531 11.734375 C 14.539062 11.734375 14.074219 11.609375 13.753906 11.359375 C 13.441406 11.101562 13.242188 10.726562 13.160156 10.234375 Z M 13.160156 10.234375 "/>
<path style=" stroke:none;fill-rule:nonzero;fill:rgb(47.058824%,47.058824%,47.058824%);fill-opacity:1;" d="M 21.035156 11.625 L 21.035156 10.9375 C 20.667969 11.46875 20.175781 11.734375 19.550781 11.734375 C 19.277344 11.734375 19.023438 11.679688 18.785156 11.578125 C 18.542969 11.464844 18.363281 11.328125 18.238281 11.171875 C 18.121094 11.015625 18.042969 10.824219 18.003906 10.59375 C 17.972656 10.4375 17.957031 10.1875 17.957031 9.84375 L 17.957031 6.953125 L 18.738281 6.953125 L 18.738281 9.546875 C 18.738281 9.964844 18.757812 10.242188 18.800781 10.375 C 18.839844 10.585938 18.941406 10.75 19.097656 10.875 C 19.261719 10.992188 19.464844 11.046875 19.707031 11.046875 C 19.945312 11.046875 20.167969 10.992188 20.378906 10.875 C 20.585938 10.75 20.730469 10.585938 20.816406 10.375 C 20.898438 10.167969 20.941406 9.859375 20.941406 9.453125 L 20.941406 6.953125 L 21.738281 6.953125 L 21.738281 11.625 Z M 21.035156 11.625 "/>
<path style=" stroke:none;fill-rule:nonzero;fill:rgb(47.058824%,47.058824%,47.058824%);fill-opacity:1;" d="M 26.023438 11.046875 C 25.730469 11.296875 25.449219 11.476562 25.179688 11.578125 C 24.90625 11.679688 24.617188 11.734375 24.304688 11.734375 C 23.792969 11.734375 23.398438 11.609375 23.117188 11.359375 C 22.84375 11.109375 22.710938 10.789062 22.710938 10.390625 C 22.710938 10.164062 22.761719 9.953125 22.867188 9.765625 C 22.96875 9.578125 23.105469 9.429688 23.273438 9.3125 C 23.4375 9.199219 23.625 9.109375 23.835938 9.046875 C 23.992188 9.015625 24.226562 8.980469 24.539062 8.9375 C 25.183594 8.867188 25.65625 8.773438 25.960938 8.65625 C 25.960938 8.554688 25.960938 8.484375 25.960938 8.453125 C 25.960938 8.132812 25.886719 7.90625 25.742188 7.78125 C 25.53125 7.59375 25.230469 7.5 24.835938 7.5 C 24.460938 7.5 24.183594 7.570312 24.007812 7.703125 C 23.828125 7.828125 23.699219 8.058594 23.617188 8.390625 L 22.851562 8.296875 C 22.914062 7.964844 23.023438 7.699219 23.179688 7.5 C 23.34375 7.292969 23.578125 7.136719 23.882812 7.03125 C 24.195312 6.917969 24.546875 6.859375 24.945312 6.859375 C 25.351562 6.859375 25.671875 6.90625 25.914062 7 C 26.164062 7.09375 26.34375 7.214844 26.460938 7.359375 C 26.585938 7.496094 26.667969 7.671875 26.710938 7.890625 C 26.742188 8.027344 26.757812 8.265625 26.757812 8.609375 L 26.757812 9.671875 C 26.757812 10.402344 26.773438 10.867188 26.804688 11.0625 C 26.835938 11.261719 26.902344 11.449219 27.007812 11.625 L 26.179688 11.625 C 26.09375 11.460938 26.042969 11.265625 26.023438 11.046875 Z M 25.960938 9.28125 C 25.667969 9.398438 25.234375 9.496094 24.664062 9.578125 C 24.339844 9.632812 24.109375 9.6875 23.976562 9.75 C 23.839844 9.804688 23.734375 9.886719 23.664062 10 C 23.589844 10.117188 23.554688 10.242188 23.554688 10.375 C 23.554688 10.585938 23.632812 10.761719 23.789062 10.90625 C 23.945312 11.042969 24.179688 11.109375 24.492188 11.109375 C 24.792969 11.109375 25.0625 11.042969 25.304688 10.90625 C 25.542969 10.773438 25.71875 10.589844 25.835938 10.359375 C 25.917969 10.183594 25.960938 9.921875 25.960938 9.578125 Z M 25.960938 9.28125 "/>
<path style=" stroke:none;fill-rule:nonzero;fill:rgb(47.058824%,47.058824%,47.058824%);fill-opacity:1;" d="M 27.964844 11.625 L 27.964844 5.1875 L 28.746094 5.1875 L 28.746094 11.625 Z M 27.964844 11.625 "/>
<path style=" stroke:none;fill-rule:nonzero;fill:rgb(47.058824%,47.058824%,47.058824%);fill-opacity:1;" d="M 32.574219 11.625 L 32.574219 5.1875 L 35.011719 5.1875 C 35.4375 5.1875 35.765625 5.210938 35.996094 5.25 C 36.308594 5.304688 36.566406 5.402344 36.777344 5.546875 C 36.996094 5.695312 37.167969 5.902344 37.292969 6.171875 C 37.425781 6.433594 37.496094 6.726562 37.496094 7.046875 C 37.496094 7.601562 37.316406 8.0625 36.964844 8.4375 C 36.621094 8.8125 35.996094 9 35.089844 9 L 33.433594 9 L 33.433594 11.625 Z M 33.433594 8.25 L 35.105469 8.25 C 35.644531 8.25 36.03125 8.148438 36.261719 7.9375 C 36.5 7.730469 36.621094 7.445312 36.621094 7.078125 C 36.621094 6.808594 36.550781 6.578125 36.417969 6.390625 C 36.28125 6.195312 36.097656 6.0625 35.871094 6 C 35.734375 5.960938 35.46875 5.9375 35.074219 5.9375 L 33.433594 5.9375 Z M 33.433594 8.25 "/>
<path style=" stroke:none;fill-rule:nonzero;fill:rgb(47.058824%,47.058824%,47.058824%);fill-opacity:1;" d="M 41.53125 11.046875 C 41.238281 11.296875 40.957031 11.476562 40.6875 11.578125 C 40.414062 11.679688 40.125 11.734375 39.8125 11.734375 C 39.300781 11.734375 38.90625 11.609375 38.625 11.359375 C 38.351562 11.109375 38.21875 10.789062 38.21875 10.390625 C 38.21875 10.164062 38.269531 9.953125 38.375 9.765625 C 38.476562 9.578125 38.613281 9.429688 38.78125 9.3125 C 38.945312 9.199219 39.132812 9.109375 39.34375 9.046875 C 39.5 9.015625 39.734375 8.980469 40.046875 8.9375 C 40.691406 8.867188 41.164062 8.773438 41.46875 8.65625 C 41.46875 8.554688 41.46875 8.484375 41.46875 8.453125 C 41.46875 8.132812 41.394531 7.90625 41.25 7.78125 C 41.039062 7.59375 40.738281 7.5 40.34375 7.5 C 39.96875 7.5 39.691406 7.570312 39.515625 7.703125 C 39.335938 7.828125 39.207031 8.058594 39.125 8.390625 L 38.359375 8.296875 C 38.421875 7.964844 38.53125 7.699219 38.6875 7.5 C 38.851562 7.292969 39.085938 7.136719 39.390625 7.03125 C 39.703125 6.917969 40.054688 6.859375 40.453125 6.859375 C 40.859375 6.859375 41.179688 6.90625 41.421875 7 C 41.671875 7.09375 41.851562 7.214844 41.96875 7.359375 C 42.09375 7.496094 42.175781 7.671875 42.21875 7.890625 C 42.25 8.027344 42.265625 8.265625 42.265625 8.609375 L 42.265625 9.671875 C 42.265625 10.402344 42.28125 10.867188 42.3125 11.0625 C 42.34375 11.261719 42.410156 11.449219 42.515625 11.625 L 41.6875 11.625 C 41.601562 11.460938 41.550781 11.265625 41.53125 11.046875 Z M 41.46875 9.28125 C 41.175781 9.398438 40.742188 9.496094 40.171875 9.578125 C 39.847656 9.632812 39.617188 9.6875 39.484375 9.75 C 39.347656 9.804688 39.242188 9.886719 39.171875 10 C 39.097656 10.117188 39.0625 10.242188 39.0625 10.375 C 39.0625 10.585938 39.140625 10.761719 39.296875 10.90625 C 39.453125 11.042969 39.6875 11.109375 40 11.109375 C 40.300781 11.109375 40.570312 11.042969 40.8125 10.90625 C 41.050781 10.773438 41.226562 10.589844 41.34375 10.359375 C 41.425781 10.183594 41.46875 9.921875 41.46875 9.578125 Z M 41.46875 9.28125 "/>
<path style=" stroke:none;fill-rule:nonzero;fill:rgb(47.058824%,47.058824%,47.058824%);fill-opacity:1;" d="M 43.476562 11.625 L 43.476562 6.953125 L 44.195312 6.953125 L 44.195312 7.671875 C 44.371094 7.339844 44.539062 7.121094 44.695312 7.015625 C 44.851562 6.914062 45.023438 6.859375 45.210938 6.859375 C 45.46875 6.859375 45.742188 6.945312 46.023438 7.109375 L 45.742188 7.84375 C 45.554688 7.730469 45.359375 7.671875 45.164062 7.671875 C 44.996094 7.671875 44.839844 7.726562 44.695312 7.828125 C 44.558594 7.933594 44.460938 8.078125 44.398438 8.265625 C 44.3125 8.546875 44.273438 8.855469 44.273438 9.1875 L 44.273438 11.625 Z M 43.476562 11.625 "/>
<path style=" stroke:none;fill-rule:nonzero;fill:rgb(47.058824%,47.058824%,47.058824%);fill-opacity:1;" d="M 49.535156 11.046875 C 49.242188 11.296875 48.960938 11.476562 48.691406 11.578125 C 48.417969 11.679688 48.128906 11.734375 47.816406 11.734375 C 47.304688 11.734375 46.910156 11.609375 46.628906 11.359375 C 46.355469 11.109375 46.222656 10.789062 46.222656 10.390625 C 46.222656 10.164062 46.273438 9.953125 46.378906 9.765625 C 46.480469 9.578125 46.617188 9.429688 46.785156 9.3125 C 46.949219 9.199219 47.136719 9.109375 47.347656 9.046875 C 47.503906 9.015625 47.738281 8.980469 48.050781 8.9375 C 48.695312 8.867188 49.167969 8.773438 49.472656 8.65625 C 49.472656 8.554688 49.472656 8.484375 49.472656 8.453125 C 49.472656 8.132812 49.398438 7.90625 49.253906 7.78125 C 49.042969 7.59375 48.742188 7.5 48.347656 7.5 C 47.972656 7.5 47.695312 7.570312 47.519531 7.703125 C 47.339844 7.828125 47.210938 8.058594 47.128906 8.390625 L 46.363281 8.296875 C 46.425781 7.964844 46.535156 7.699219 46.691406 7.5 C 46.855469 7.292969 47.089844 7.136719 47.394531 7.03125 C 47.707031 6.917969 48.058594 6.859375 48.457031 6.859375 C 48.863281 6.859375 49.183594 6.90625 49.425781 7 C 49.675781 7.09375 49.855469 7.214844 49.972656 7.359375 C 50.097656 7.496094 50.179688 7.671875 50.222656 7.890625 C 50.253906 8.027344 50.269531 8.265625 50.269531 8.609375 L 50.269531 9.671875 C 50.269531 10.402344 50.285156 10.867188 50.316406 11.0625 C 50.347656 11.261719 50.414062 11.449219 50.519531 11.625 L 49.691406 11.625 C 49.605469 11.460938 49.554688 11.265625 49.535156 11.046875 Z M 49.472656 9.28125 C 49.179688 9.398438 48.746094 9.496094 48.175781 9.578125 C 47.851562 9.632812 47.621094 9.6875 47.488281 9.75 C 47.351562 9.804688 47.246094 9.886719 47.175781 10 C 47.101562 10.117188 47.066406 10.242188 47.066406 10.375 C 47.066406 10.585938 47.144531 10.761719 47.300781 10.90625 C 47.457031 11.042969 47.691406 11.109375 48.003906 11.109375 C 48.304688 11.109375 48.574219 11.042969 48.816406 10.90625 C 49.054688 10.773438 49.230469 10.589844 49.347656 10.359375 C 49.429688 10.183594 49.472656 9.921875 49.472656 9.578125 Z M 49.472656 9.28125 "/>
<path style=" stroke:none;fill-rule:nonzero;fill:rgb(47.058824%,47.058824%,47.058824%);fill-opacity:1;" d="M 54.523438 11.625 L 54.523438 11.03125 C 54.21875 11.5 53.78125 11.734375 53.210938 11.734375 C 52.84375 11.734375 52.507812 11.628906 52.195312 11.421875 C 51.882812 11.214844 51.636719 10.929688 51.460938 10.5625 C 51.292969 10.199219 51.210938 9.777344 51.210938 9.296875 C 51.210938 8.828125 51.289062 8.40625 51.445312 8.03125 C 51.601562 7.648438 51.828125 7.355469 52.132812 7.15625 C 52.445312 6.960938 52.792969 6.859375 53.179688 6.859375 C 53.460938 6.859375 53.710938 6.917969 53.929688 7.03125 C 54.148438 7.148438 54.324219 7.304688 54.460938 7.5 L 54.460938 5.1875 L 55.257812 5.1875 L 55.257812 11.625 Z M 52.023438 9.296875 C 52.023438 9.890625 52.148438 10.339844 52.398438 10.640625 C 52.648438 10.933594 52.945312 11.078125 53.289062 11.078125 C 53.632812 11.078125 53.921875 10.9375 54.164062 10.65625 C 54.414062 10.375 54.539062 9.945312 54.539062 9.359375 C 54.539062 8.726562 54.414062 8.257812 54.164062 7.953125 C 53.914062 7.652344 53.609375 7.5 53.257812 7.5 C 52.902344 7.5 52.605469 7.648438 52.367188 7.9375 C 52.136719 8.230469 52.023438 8.683594 52.023438 9.296875 Z M 52.023438 9.296875 "/>
<path style=" stroke:none;fill-rule:nonzero;fill:rgb(47.058824%,47.058824%,47.058824%);fill-opacity:1;" d="M 56.5 6.09375 L 56.5 5.1875 L 57.296875 5.1875 L 57.296875 6.09375 Z M 56.5 11.625 L 56.5 6.953125 L 57.296875 6.953125 L 57.296875 11.625 Z M 56.5 11.625 "/>
<path style=" stroke:none;fill-rule:nonzero;fill:rgb(47.058824%,47.058824%,47.058824%);fill-opacity:1;" d="M 58.355469 12.015625 L 59.121094 12.125 C 59.152344 12.363281 59.238281 12.535156 59.386719 12.640625 C 59.582031 12.785156 59.855469 12.859375 60.199219 12.859375 C 60.5625 12.859375 60.84375 12.785156 61.042969 12.640625 C 61.238281 12.492188 61.375 12.289062 61.449219 12.03125 C 61.488281 11.863281 61.503906 11.527344 61.496094 11.015625 C 61.152344 11.421875 60.722656 11.625 60.214844 11.625 C 59.566406 11.625 59.066406 11.398438 58.714844 10.9375 C 58.371094 10.46875 58.199219 9.914062 58.199219 9.265625 C 58.199219 8.820312 58.277344 8.40625 58.433594 8.03125 C 58.597656 7.65625 58.832031 7.371094 59.136719 7.171875 C 59.4375 6.964844 59.796875 6.859375 60.214844 6.859375 C 60.765625 6.859375 61.21875 7.078125 61.574219 7.515625 L 61.574219 6.953125 L 62.308594 6.953125 L 62.308594 10.984375 C 62.308594 11.710938 62.230469 12.226562 62.074219 12.53125 C 61.925781 12.832031 61.691406 13.070312 61.371094 13.25 C 61.058594 13.425781 60.667969 13.515625 60.199219 13.515625 C 59.636719 13.515625 59.183594 13.390625 58.839844 13.140625 C 58.503906 12.890625 58.34375 12.515625 58.355469 12.015625 Z M 59.011719 9.203125 C 59.011719 9.820312 59.128906 10.265625 59.371094 10.546875 C 59.609375 10.828125 59.910156 10.96875 60.277344 10.96875 C 60.640625 10.96875 60.949219 10.828125 61.199219 10.546875 C 61.449219 10.265625 61.574219 9.828125 61.574219 9.234375 C 61.574219 8.664062 61.441406 8.230469 61.183594 7.9375 C 60.933594 7.648438 60.628906 7.5 60.277344 7.5 C 59.921875 7.5 59.621094 7.648438 59.371094 7.9375 C 59.128906 8.21875 59.011719 8.640625 59.011719 9.203125 Z M 59.011719 9.203125 "/>
<path style=" stroke:none;fill-rule:nonzero;fill:rgb(47.058824%,47.058824%,47.058824%);fill-opacity:1;" d="M 63.503906 11.625 L 63.503906 6.953125 L 64.207031 6.953125 L 64.207031 7.609375 C 64.351562 7.382812 64.542969 7.199219 64.785156 7.0625 C 65.035156 6.929688 65.316406 6.859375 65.628906 6.859375 C 65.972656 6.859375 66.253906 6.933594 66.472656 7.078125 C 66.691406 7.214844 66.847656 7.414062 66.941406 7.671875 C 67.316406 7.132812 67.792969 6.859375 68.378906 6.859375 C 68.847656 6.859375 69.207031 6.992188 69.457031 7.25 C 69.707031 7.5 69.832031 7.890625 69.832031 8.421875 L 69.832031 11.625 L 69.035156 11.625 L 69.035156 8.6875 C 69.035156 8.367188 69.007812 8.136719 68.957031 8 C 68.914062 7.867188 68.824219 7.757812 68.691406 7.671875 C 68.554688 7.578125 68.394531 7.53125 68.207031 7.53125 C 67.882812 7.53125 67.613281 7.640625 67.394531 7.859375 C 67.175781 8.078125 67.066406 8.429688 67.066406 8.90625 L 67.066406 11.625 L 66.269531 11.625 L 66.269531 8.59375 C 66.269531 8.242188 66.207031 7.976562 66.082031 7.796875 C 65.957031 7.621094 65.746094 7.53125 65.457031 7.53125 C 65.226562 7.53125 65.019531 7.59375 64.832031 7.71875 C 64.644531 7.835938 64.507812 8.007812 64.425781 8.234375 C 64.339844 8.453125 64.300781 8.777344 64.300781 9.203125 L 64.300781 11.625 Z M 63.503906 11.625 "/>
<path style=" stroke:none;fill-rule:nonzero;fill:rgb(47.058824%,47.058824%,47.058824%);fill-opacity:1;" d="M 73.34375 8.484375 C 73.34375 7.421875 73.628906 6.589844 74.203125 5.984375 C 74.773438 5.371094 75.515625 5.0625 76.421875 5.0625 C 77.015625 5.0625 77.550781 5.210938 78.03125 5.5 C 78.507812 5.78125 78.875 6.179688 79.125 6.6875 C 79.375 7.199219 79.5 7.773438 79.5 8.40625 C 79.5 9.0625 79.367188 9.652344 79.109375 10.171875 C 78.847656 10.683594 78.472656 11.074219 77.984375 11.34375 C 77.503906 11.605469 76.984375 11.734375 76.421875 11.734375 C 75.816406 11.734375 75.273438 11.589844 74.796875 11.296875 C 74.316406 11.007812 73.953125 10.605469 73.703125 10.09375 C 73.460938 9.585938 73.34375 9.046875 73.34375 8.484375 Z M 74.21875 8.5 C 74.21875 9.28125 74.425781 9.898438 74.84375 10.34375 C 75.257812 10.78125 75.785156 11 76.421875 11 C 77.054688 11 77.582031 10.777344 78 10.328125 C 78.414062 9.882812 78.625 9.242188 78.625 8.40625 C 78.625 7.886719 78.535156 7.433594 78.359375 7.046875 C 78.179688 6.652344 77.921875 6.34375 77.578125 6.125 C 77.234375 5.90625 76.851562 5.796875 76.4375 5.796875 C 75.832031 5.796875 75.3125 6.007812 74.875 6.421875 C 74.4375 6.839844 74.21875 7.53125 74.21875 8.5 Z M 74.21875 8.5 "/>
<path style=" stroke:none;fill-rule:nonzero;fill:rgb(47.058824%,47.058824%,47.058824%);fill-opacity:1;" d="M 80.5 11.625 L 80.5 6.953125 L 81.21875 6.953125 L 81.21875 7.625 C 81.550781 7.117188 82.046875 6.859375 82.703125 6.859375 C 82.984375 6.859375 83.238281 6.914062 83.46875 7.015625 C 83.707031 7.109375 83.882812 7.242188 84 7.40625 C 84.113281 7.5625 84.195312 7.757812 84.25 7.984375 C 84.28125 8.132812 84.296875 8.386719 84.296875 8.75 L 84.296875 11.625 L 83.5 11.625 L 83.5 8.78125 C 83.5 8.460938 83.46875 8.21875 83.40625 8.0625 C 83.34375 7.90625 83.234375 7.78125 83.078125 7.6875 C 82.921875 7.585938 82.738281 7.53125 82.53125 7.53125 C 82.195312 7.53125 81.90625 7.640625 81.65625 7.859375 C 81.414062 8.070312 81.296875 8.476562 81.296875 9.078125 L 81.296875 11.625 Z M 80.5 11.625 "/>
<path style=" stroke:none;fill-rule:nonzero;fill:rgb(47.058824%,47.058824%,47.058824%);fill-opacity:1;" d="M 85.492188 11.625 L 85.492188 5.1875 L 86.273438 5.1875 L 86.273438 11.625 Z M 85.492188 11.625 "/>
<path style=" stroke:none;fill-rule:nonzero;fill:rgb(47.058824%,47.058824%,47.058824%);fill-opacity:1;" d="M 87.507812 6.09375 L 87.507812 5.1875 L 88.304688 5.1875 L 88.304688 6.09375 Z M 87.507812 11.625 L 87.507812 6.953125 L 88.304688 6.953125 L 88.304688 11.625 Z M 87.507812 11.625 "/>
<path style=" stroke:none;fill-rule:nonzero;fill:rgb(47.058824%,47.058824%,47.058824%);fill-opacity:1;" d="M 89.503906 11.625 L 89.503906 6.953125 L 90.222656 6.953125 L 90.222656 7.625 C 90.554688 7.117188 91.050781 6.859375 91.707031 6.859375 C 91.988281 6.859375 92.242188 6.914062 92.472656 7.015625 C 92.710938 7.109375 92.886719 7.242188 93.003906 7.40625 C 93.117188 7.5625 93.199219 7.757812 93.253906 7.984375 C 93.285156 8.132812 93.300781 8.386719 93.300781 8.75 L 93.300781 11.625 L 92.503906 11.625 L 92.503906 8.78125 C 92.503906 8.460938 92.472656 8.21875 92.410156 8.0625 C 92.347656 7.90625 92.238281 7.78125 92.082031 7.6875 C 91.925781 7.585938 91.742188 7.53125 91.535156 7.53125 C 91.199219 7.53125 90.910156 7.640625 90.660156 7.859375 C 90.417969 8.070312 90.300781 8.476562 90.300781 9.078125 L 90.300781 11.625 Z M 89.503906 11.625 "/>
<path style=" stroke:none;fill-rule:nonzero;fill:rgb(47.058824%,47.058824%,47.058824%);fill-opacity:1;" d="M 97.699219 10.125 L 98.527344 10.21875 C 98.390625 10.699219 98.144531 11.074219 97.792969 11.34375 C 97.449219 11.605469 97.003906 11.734375 96.464844 11.734375 C 95.785156 11.734375 95.246094 11.527344 94.839844 11.109375 C 94.441406 10.683594 94.246094 10.089844 94.246094 9.328125 C 94.246094 8.546875 94.449219 7.945312 94.855469 7.515625 C 95.261719 7.078125 95.785156 6.859375 96.433594 6.859375 C 97.058594 6.859375 97.5625 7.074219 97.949219 7.5 C 98.34375 7.917969 98.542969 8.511719 98.542969 9.28125 C 98.542969 9.335938 98.542969 9.40625 98.542969 9.5 L 95.058594 9.5 C 95.089844 10.011719 95.234375 10.402344 95.496094 10.671875 C 95.753906 10.945312 96.082031 11.078125 96.480469 11.078125 C 96.769531 11.078125 97.015625 11.007812 97.214844 10.859375 C 97.421875 10.703125 97.582031 10.460938 97.699219 10.125 Z M 95.105469 8.84375 L 97.714844 8.84375 C 97.683594 8.449219 97.582031 8.152344 97.417969 7.953125 C 97.167969 7.652344 96.839844 7.5 96.433594 7.5 C 96.066406 7.5 95.761719 7.625 95.511719 7.875 C 95.269531 8.117188 95.136719 8.4375 95.105469 8.84375 Z M 95.105469 8.84375 "/>
<path style=" stroke:none;fill-rule:nonzero;fill:rgb(47.058824%,47.058824%,47.058824%);fill-opacity:1;" d="M 102.15625 11.625 L 102.15625 5.1875 L 106.5 5.1875 L 106.5 5.9375 L 103.015625 5.9375 L 103.015625 7.9375 L 106.03125 7.9375 L 106.03125 8.703125 L 103.015625 8.703125 L 103.015625 11.625 Z M 102.15625 11.625 "/>
<path style=" stroke:none;fill-rule:nonzero;fill:rgb(47.058824%,47.058824%,47.058824%);fill-opacity:1;" d="M 107.5 11.625 L 107.5 6.953125 L 108.21875 6.953125 L 108.21875 7.671875 C 108.394531 7.339844 108.5625 7.121094 108.71875 7.015625 C 108.875 6.914062 109.046875 6.859375 109.234375 6.859375 C 109.492188 6.859375 109.765625 6.945312 110.046875 7.109375 L 109.765625 7.84375 C 109.578125 7.730469 109.382812 7.671875 109.1875 7.671875 C 109.019531 7.671875 108.863281 7.726562 108.71875 7.828125 C 108.582031 7.933594 108.484375 8.078125 108.421875 8.265625 C 108.335938 8.546875 108.296875 8.855469 108.296875 9.1875 L 108.296875 11.625 Z M 107.5 11.625 "/>
<path style=" stroke:none;fill-rule:nonzero;fill:rgb(47.058824%,47.058824%,47.058824%);fill-opacity:1;" d="M 113.699219 10.125 L 114.527344 10.21875 C 114.390625 10.699219 114.144531 11.074219 113.792969 11.34375 C 113.449219 11.605469 113.003906 11.734375 112.464844 11.734375 C 111.785156 11.734375 111.246094 11.527344 110.839844 11.109375 C 110.441406 10.683594 110.246094 10.089844 110.246094 9.328125 C 110.246094 8.546875 110.449219 7.945312 110.855469 7.515625 C 111.261719 7.078125 111.785156 6.859375 112.433594 6.859375 C 113.058594 6.859375 113.5625 7.074219 113.949219 7.5 C 114.34375 7.917969 114.542969 8.511719 114.542969 9.28125 C 114.542969 9.335938 114.542969 9.40625 114.542969 9.5 L 111.058594 9.5 C 111.089844 10.011719 111.234375 10.402344 111.496094 10.671875 C 111.753906 10.945312 112.082031 11.078125 112.480469 11.078125 C 112.769531 11.078125 113.015625 11.007812 113.214844 10.859375 C 113.421875 10.703125 113.582031 10.460938 113.699219 10.125 Z M 111.105469 8.84375 L 113.714844 8.84375 C 113.683594 8.449219 113.582031 8.152344 113.417969 7.953125 C 113.167969 7.652344 112.839844 7.5 112.433594 7.5 C 112.066406 7.5 111.761719 7.625 111.511719 7.875 C 111.269531 8.117188 111.136719 8.4375 111.105469 8.84375 Z M 111.105469 8.84375 "/>
<path style=" stroke:none;fill-rule:nonzero;fill:rgb(47.058824%,47.058824%,47.058824%);fill-opacity:1;" d="M 118.703125 10.125 L 119.53125 10.21875 C 119.394531 10.699219 119.148438 11.074219 118.796875 11.34375 C 118.453125 11.605469 118.007812 11.734375 117.46875 11.734375 C 116.789062 11.734375 116.25 11.527344 115.84375 11.109375 C 115.445312 10.683594 115.25 10.089844 115.25 9.328125 C 115.25 8.546875 115.453125 7.945312 115.859375 7.515625 C 116.265625 7.078125 116.789062 6.859375 117.4375 6.859375 C 118.0625 6.859375 118.566406 7.074219 118.953125 7.5 C 119.347656 7.917969 119.546875 8.511719 119.546875 9.28125 C 119.546875 9.335938 119.546875 9.40625 119.546875 9.5 L 116.0625 9.5 C 116.09375 10.011719 116.238281 10.402344 116.5 10.671875 C 116.757812 10.945312 117.085938 11.078125 117.484375 11.078125 C 117.773438 11.078125 118.019531 11.007812 118.21875 10.859375 C 118.425781 10.703125 118.585938 10.460938 118.703125 10.125 Z M 116.109375 8.84375 L 118.71875 8.84375 C 118.6875 8.449219 118.585938 8.152344 118.421875 7.953125 C 118.171875 7.652344 117.84375 7.5 117.4375 7.5 C 117.070312 7.5 116.765625 7.625 116.515625 7.875 C 116.273438 8.117188 116.140625 8.4375 116.109375 8.84375 Z M 116.109375 8.84375 "/>
<path style=" stroke:none;fill-rule:nonzero;fill:rgb(47.058824%,47.058824%,47.058824%);fill-opacity:1;" d="M 123.148438 11.625 L 123.148438 5.1875 L 127.804688 5.1875 L 127.804688 5.9375 L 123.992188 5.9375 L 123.992188 7.921875 L 127.554688 7.921875 L 127.554688 8.671875 L 123.992188 8.671875 L 123.992188 10.859375 L 127.945312 10.859375 L 127.945312 11.625 Z M 123.148438 11.625 "/>
<path style=" stroke:none;fill-rule:nonzero;fill:rgb(47.058824%,47.058824%,47.058824%);fill-opacity:1;" d="M 132.054688 11.625 L 132.054688 11.03125 C 131.75 11.5 131.3125 11.734375 130.742188 11.734375 C 130.375 11.734375 130.039062 11.628906 129.726562 11.421875 C 129.414062 11.214844 129.167969 10.929688 128.992188 10.5625 C 128.824219 10.199219 128.742188 9.777344 128.742188 9.296875 C 128.742188 8.828125 128.820312 8.40625 128.976562 8.03125 C 129.132812 7.648438 129.359375 7.355469 129.664062 7.15625 C 129.976562 6.960938 130.324219 6.859375 130.710938 6.859375 C 130.992188 6.859375 131.242188 6.917969 131.460938 7.03125 C 131.679688 7.148438 131.855469 7.304688 131.992188 7.5 L 131.992188 5.1875 L 132.789062 5.1875 L 132.789062 11.625 Z M 129.554688 9.296875 C 129.554688 9.890625 129.679688 10.339844 129.929688 10.640625 C 130.179688 10.933594 130.476562 11.078125 130.820312 11.078125 C 131.164062 11.078125 131.453125 10.9375 131.695312 10.65625 C 131.945312 10.375 132.070312 9.945312 132.070312 9.359375 C 132.070312 8.726562 131.945312 8.257812 131.695312 7.953125 C 131.445312 7.652344 131.140625 7.5 130.789062 7.5 C 130.433594 7.5 130.136719 7.648438 129.898438 7.9375 C 129.667969 8.230469 129.554688 8.683594 129.554688 9.296875 Z M 129.554688 9.296875 "/>
<path style=" stroke:none;fill-rule:nonzero;fill:rgb(47.058824%,47.058824%,47.058824%);fill-opacity:1;" d="M 134.03125 6.09375 L 134.03125 5.1875 L 134.828125 5.1875 L 134.828125 6.09375 Z M 134.03125 11.625 L 134.03125 6.953125 L 134.828125 6.953125 L 134.828125 11.625 Z M 134.03125 11.625 "/>
<path style=" stroke:none;fill-rule:nonzero;fill:rgb(47.058824%,47.058824%,47.058824%);fill-opacity:1;" d="M 137.765625 10.921875 L 137.875 11.609375 C 137.644531 11.660156 137.445312 11.6875 137.28125 11.6875 C 136.988281 11.6875 136.765625 11.640625 136.609375 11.546875 C 136.453125 11.453125 136.335938 11.335938 136.265625 11.1875 C 136.203125 11.042969 136.171875 10.734375 136.171875 10.265625 L 136.171875 7.578125 L 135.59375 7.578125 L 135.59375 6.953125 L 136.171875 6.953125 L 136.171875 5.796875 L 136.96875 5.328125 L 136.96875 6.953125 L 137.765625 6.953125 L 137.765625 7.578125 L 136.96875 7.578125 L 136.96875 10.296875 C 136.96875 10.527344 136.976562 10.671875 137 10.734375 C 137.03125 10.796875 137.078125 10.851562 137.140625 10.890625 C 137.203125 10.933594 137.289062 10.953125 137.40625 10.953125 C 137.5 10.953125 137.617188 10.945312 137.765625 10.921875 Z M 137.765625 10.921875 "/>
<path style=" stroke:none;fill-rule:nonzero;fill:rgb(47.058824%,47.058824%,47.058824%);fill-opacity:1;" d="M 138.53125 6.09375 L 138.53125 5.1875 L 139.328125 5.1875 L 139.328125 6.09375 Z M 138.53125 11.625 L 138.53125 6.953125 L 139.328125 6.953125 L 139.328125 11.625 Z M 138.53125 11.625 "/>
<path style=" stroke:none;fill-rule:nonzero;fill:rgb(47.058824%,47.058824%,47.058824%);fill-opacity:1;" d="M 140.234375 9.296875 C 140.234375 8.433594 140.472656 7.792969 140.953125 7.375 C 141.359375 7.03125 141.847656 6.859375 142.421875 6.859375 C 143.066406 6.859375 143.59375 7.070312 144 7.484375 C 144.40625 7.902344 144.609375 8.480469 144.609375 9.21875 C 144.609375 9.824219 144.515625 10.296875 144.328125 10.640625 C 144.148438 10.984375 143.890625 11.257812 143.546875 11.453125 C 143.203125 11.640625 142.828125 11.734375 142.421875 11.734375 C 141.765625 11.734375 141.234375 11.527344 140.828125 11.109375 C 140.429688 10.683594 140.234375 10.078125 140.234375 9.296875 Z M 141.046875 9.296875 C 141.046875 9.890625 141.175781 10.339844 141.4375 10.640625 C 141.695312 10.933594 142.023438 11.078125 142.421875 11.078125 C 142.816406 11.078125 143.144531 10.933594 143.40625 10.640625 C 143.664062 10.339844 143.796875 9.882812 143.796875 9.265625 C 143.796875 8.695312 143.664062 8.257812 143.40625 7.953125 C 143.144531 7.652344 142.816406 7.5 142.421875 7.5 C 142.023438 7.5 141.695312 7.652344 141.4375 7.953125 C 141.175781 8.246094 141.046875 8.695312 141.046875 9.296875 Z M 141.046875 9.296875 "/>
<path style=" stroke:none;fill-rule:nonzero;fill:rgb(47.058824%,47.058824%,47.058824%);fill-opacity:1;" d="M 145.535156 11.625 L 145.535156 6.953125 L 146.253906 6.953125 L 146.253906 7.625 C 146.585938 7.117188 147.082031 6.859375 147.738281 6.859375 C 148.019531 6.859375 148.273438 6.914062 148.503906 7.015625 C 148.742188 7.109375 148.917969 7.242188 149.035156 7.40625 C 149.148438 7.5625 149.230469 7.757812 149.285156 7.984375 C 149.316406 8.132812 149.332031 8.386719 149.332031 8.75 L 149.332031 11.625 L 148.535156 11.625 L 148.535156 8.78125 C 148.535156 8.460938 148.503906 8.21875 148.441406 8.0625 C 148.378906 7.90625 148.269531 7.78125 148.113281 7.6875 C 147.957031 7.585938 147.773438 7.53125 147.566406 7.53125 C 147.230469 7.53125 146.941406 7.640625 146.691406 7.859375 C 146.449219 8.070312 146.332031 8.476562 146.332031 9.078125 L 146.332031 11.625 Z M 145.535156 11.625 "/>
<path style=" stroke:none;fill-rule:nonzero;fill:rgb(47.058824%,47.058824%,47.058824%);fill-opacity:1;" d="M 90.203125 181.875 L 87.71875 175.4375 L 88.640625 175.4375 L 90.3125 180.109375 C 90.445312 180.484375 90.554688 180.839844 90.640625 181.171875 C 90.742188 180.820312 90.863281 180.464844 91 180.109375 L 92.734375 175.4375 L 93.609375 175.4375 L 91.078125 181.875 Z M 90.203125 181.875 "/>
<path style=" stroke:none;fill-rule:nonzero;fill:rgb(47.058824%,47.058824%,47.058824%);fill-opacity:1;" d="M 94.269531 176.34375 L 94.269531 175.4375 L 95.066406 175.4375 L 95.066406 176.34375 Z M 94.269531 181.875 L 94.269531 177.203125 L 95.066406 177.203125 L 95.066406 181.875 Z M 94.269531 181.875 "/>
<path style=" stroke:none;fill-rule:nonzero;fill:rgb(47.058824%,47.058824%,47.058824%);fill-opacity:1;" d="M 95.957031 180.484375 L 96.738281 180.359375 C 96.777344 180.671875 96.898438 180.914062 97.097656 181.078125 C 97.304688 181.246094 97.585938 181.328125 97.941406 181.328125 C 98.304688 181.328125 98.574219 181.257812 98.753906 181.109375 C 98.929688 180.964844 99.019531 180.792969 99.019531 180.59375 C 99.019531 180.40625 98.941406 180.265625 98.785156 180.171875 C 98.667969 180.101562 98.398438 180.007812 97.972656 179.890625 C 97.386719 179.746094 96.980469 179.621094 96.753906 179.515625 C 96.535156 179.414062 96.367188 179.265625 96.253906 179.078125 C 96.136719 178.890625 96.082031 178.683594 96.082031 178.453125 C 96.082031 178.246094 96.128906 178.054688 96.222656 177.875 C 96.316406 177.699219 96.445312 177.546875 96.613281 177.421875 C 96.738281 177.339844 96.902344 177.265625 97.113281 177.203125 C 97.332031 177.140625 97.558594 177.109375 97.800781 177.109375 C 98.164062 177.109375 98.480469 177.164062 98.753906 177.265625 C 99.035156 177.371094 99.242188 177.511719 99.378906 177.6875 C 99.511719 177.867188 99.605469 178.105469 99.660156 178.40625 L 98.878906 178.515625 C 98.847656 178.277344 98.742188 178.089844 98.566406 177.953125 C 98.398438 177.820312 98.164062 177.75 97.863281 177.75 C 97.496094 177.75 97.238281 177.8125 97.082031 177.9375 C 96.925781 178.054688 96.847656 178.195312 96.847656 178.359375 C 96.847656 178.464844 96.878906 178.554688 96.941406 178.625 C 97.003906 178.71875 97.105469 178.792969 97.253906 178.84375 C 97.324219 178.875 97.554688 178.945312 97.941406 179.046875 C 98.503906 179.195312 98.894531 179.3125 99.113281 179.40625 C 99.339844 179.5 99.519531 179.640625 99.644531 179.828125 C 99.769531 180.007812 99.832031 180.230469 99.832031 180.5 C 99.832031 180.773438 99.753906 181.023438 99.597656 181.25 C 99.441406 181.480469 99.214844 181.664062 98.925781 181.796875 C 98.644531 181.921875 98.316406 181.984375 97.941406 181.984375 C 97.335938 181.984375 96.871094 181.859375 96.550781 181.609375 C 96.238281 181.351562 96.039062 180.976562 95.957031 180.484375 Z M 95.957031 180.484375 "/>
<path style=" stroke:none;fill-rule:nonzero;fill:rgb(47.058824%,47.058824%,47.058824%);fill-opacity:1;" d="M 103.832031 181.875 L 103.832031 181.1875 C 103.464844 181.71875 102.972656 181.984375 102.347656 181.984375 C 102.074219 181.984375 101.820312 181.929688 101.582031 181.828125 C 101.339844 181.714844 101.160156 181.578125 101.035156 181.421875 C 100.917969 181.265625 100.839844 181.074219 100.800781 180.84375 C 100.769531 180.6875 100.753906 180.4375 100.753906 180.09375 L 100.753906 177.203125 L 101.535156 177.203125 L 101.535156 179.796875 C 101.535156 180.214844 101.554688 180.492188 101.597656 180.625 C 101.636719 180.835938 101.738281 181 101.894531 181.125 C 102.058594 181.242188 102.261719 181.296875 102.503906 181.296875 C 102.742188 181.296875 102.964844 181.242188 103.175781 181.125 C 103.382812 181 103.527344 180.835938 103.613281 180.625 C 103.695312 180.417969 103.738281 180.109375 103.738281 179.703125 L 103.738281 177.203125 L 104.535156 177.203125 L 104.535156 181.875 Z M 103.832031 181.875 "/>
<path style=" stroke:none;fill-rule:nonzero;fill:rgb(47.058824%,47.058824%,47.058824%);fill-opacity:1;" d="M 108.820312 181.296875 C 108.527344 181.546875 108.246094 181.726562 107.976562 181.828125 C 107.703125 181.929688 107.414062 181.984375 107.101562 181.984375 C 106.589844 181.984375 106.195312 181.859375 105.914062 181.609375 C 105.640625 181.359375 105.507812 181.039062 105.507812 180.640625 C 105.507812 180.414062 105.558594 180.203125 105.664062 180.015625 C 105.765625 179.828125 105.902344 179.679688 106.070312 179.5625 C 106.234375 179.449219 106.421875 179.359375 106.632812 179.296875 C 106.789062 179.265625 107.023438 179.230469 107.335938 179.1875 C 107.980469 179.117188 108.453125 179.023438 108.757812 178.90625 C 108.757812 178.804688 108.757812 178.734375 108.757812 178.703125 C 108.757812 178.382812 108.683594 178.15625 108.539062 178.03125 C 108.328125 177.84375 108.027344 177.75 107.632812 177.75 C 107.257812 177.75 106.980469 177.820312 106.804688 177.953125 C 106.625 178.078125 106.496094 178.308594 106.414062 178.640625 L 105.648438 178.546875 C 105.710938 178.214844 105.820312 177.949219 105.976562 177.75 C 106.140625 177.542969 106.375 177.386719 106.679688 177.28125 C 106.992188 177.167969 107.34375 177.109375 107.742188 177.109375 C 108.148438 177.109375 108.46875 177.15625 108.710938 177.25 C 108.960938 177.34375 109.140625 177.464844 109.257812 177.609375 C 109.382812 177.746094 109.464844 177.921875 109.507812 178.140625 C 109.539062 178.277344 109.554688 178.515625 109.554688 178.859375 L 109.554688 179.921875 C 109.554688 180.652344 109.570312 181.117188 109.601562 181.3125 C 109.632812 181.511719 109.699219 181.699219 109.804688 181.875 L 108.976562 181.875 C 108.890625 181.710938 108.839844 181.515625 108.820312 181.296875 Z M 108.757812 179.53125 C 108.464844 179.648438 108.03125 179.746094 107.460938 179.828125 C 107.136719 179.882812 106.90625 179.9375 106.773438 180 C 106.636719 180.054688 106.53125 180.136719 106.460938 180.25 C 106.386719 180.367188 106.351562 180.492188 106.351562 180.625 C 106.351562 180.835938 106.429688 181.011719 106.585938 181.15625 C 106.742188 181.292969 106.976562 181.359375 107.289062 181.359375 C 107.589844 181.359375 107.859375 181.292969 108.101562 181.15625 C 108.339844 181.023438 108.515625 180.839844 108.632812 180.609375 C 108.714844 180.433594 108.757812 180.171875 108.757812 179.828125 Z M 108.757812 179.53125 "/>
<path style=" stroke:none;fill-rule:nonzero;fill:rgb(47.058824%,47.058824%,47.058824%);fill-opacity:1;" d="M 110.761719 181.875 L 110.761719 175.4375 L 111.542969 175.4375 L 111.542969 181.875 Z M 110.761719 181.875 "/>
<path style=" stroke:none;fill-rule:nonzero;fill:rgb(47.058824%,47.058824%,47.058824%);fill-opacity:1;" d="M 115.371094 181.875 L 115.371094 175.4375 L 117.808594 175.4375 C 118.234375 175.4375 118.5625 175.460938 118.792969 175.5 C 119.105469 175.554688 119.363281 175.652344 119.574219 175.796875 C 119.792969 175.945312 119.964844 176.152344 120.089844 176.421875 C 120.222656 176.683594 120.292969 176.976562 120.292969 177.296875 C 120.292969 177.851562 120.113281 178.3125 119.761719 178.6875 C 119.417969 179.0625 118.792969 179.25 117.886719 179.25 L 116.230469 179.25 L 116.230469 181.875 Z M 116.230469 178.5 L 117.902344 178.5 C 118.441406 178.5 118.828125 178.398438 119.058594 178.1875 C 119.296875 177.980469 119.417969 177.695312 119.417969 177.328125 C 119.417969 177.058594 119.347656 176.828125 119.214844 176.640625 C 119.078125 176.445312 118.894531 176.3125 118.667969 176.25 C 118.53125 176.210938 118.265625 176.1875 117.871094 176.1875 L 116.230469 176.1875 Z M 116.230469 178.5 "/>
<path style=" stroke:none;fill-rule:nonzero;fill:rgb(47.058824%,47.058824%,47.058824%);fill-opacity:1;" d="M 124.328125 181.296875 C 124.035156 181.546875 123.753906 181.726562 123.484375 181.828125 C 123.210938 181.929688 122.921875 181.984375 122.609375 181.984375 C 122.097656 181.984375 121.703125 181.859375 121.421875 181.609375 C 121.148438 181.359375 121.015625 181.039062 121.015625 180.640625 C 121.015625 180.414062 121.066406 180.203125 121.171875 180.015625 C 121.273438 179.828125 121.410156 179.679688 121.578125 179.5625 C 121.742188 179.449219 121.929688 179.359375 122.140625 179.296875 C 122.296875 179.265625 122.53125 179.230469 122.84375 179.1875 C 123.488281 179.117188 123.960938 179.023438 124.265625 178.90625 C 124.265625 178.804688 124.265625 178.734375 124.265625 178.703125 C 124.265625 178.382812 124.191406 178.15625 124.046875 178.03125 C 123.835938 177.84375 123.535156 177.75 123.140625 177.75 C 122.765625 177.75 122.488281 177.820312 122.3125 177.953125 C 122.132812 178.078125 122.003906 178.308594 121.921875 178.640625 L 121.15625 178.546875 C 121.21875 178.214844 121.328125 177.949219 121.484375 177.75 C 121.648438 177.542969 121.882812 177.386719 122.1875 177.28125 C 122.5 177.167969 122.851562 177.109375 123.25 177.109375 C 123.65625 177.109375 123.976562 177.15625 124.21875 177.25 C 124.46875 177.34375 124.648438 177.464844 124.765625 177.609375 C 124.890625 177.746094 124.972656 177.921875 125.015625 178.140625 C 125.046875 178.277344 125.0625 178.515625 125.0625 178.859375 L 125.0625 179.921875 C 125.0625 180.652344 125.078125 181.117188 125.109375 181.3125 C 125.140625 181.511719 125.207031 181.699219 125.3125 181.875 L 124.484375 181.875 C 124.398438 181.710938 124.347656 181.515625 124.328125 181.296875 Z M 124.265625 179.53125 C 123.972656 179.648438 123.539062 179.746094 122.96875 179.828125 C 122.644531 179.882812 122.414062 179.9375 122.28125 180 C 122.144531 180.054688 122.039062 180.136719 121.96875 180.25 C 121.894531 180.367188 121.859375 180.492188 121.859375 180.625 C 121.859375 180.835938 121.9375 181.011719 122.09375 181.15625 C 122.25 181.292969 122.484375 181.359375 122.796875 181.359375 C 123.097656 181.359375 123.367188 181.292969 123.609375 181.15625 C 123.847656 181.023438 124.023438 180.839844 124.140625 180.609375 C 124.222656 180.433594 124.265625 180.171875 124.265625 179.828125 Z M 124.265625 179.53125 "/>
<path style=" stroke:none;fill-rule:nonzero;fill:rgb(47.058824%,47.058824%,47.058824%);fill-opacity:1;" d="M 126.273438 181.875 L 126.273438 177.203125 L 126.992188 177.203125 L 126.992188 177.921875 C 127.167969 177.589844 127.335938 177.371094 127.492188 177.265625 C 127.648438 177.164062 127.820312 177.109375 128.007812 177.109375 C 128.265625 177.109375 128.539062 177.195312 128.820312 177.359375 L 128.539062 178.09375 C 128.351562 177.980469 128.15625 177.921875 127.960938 177.921875 C 127.792969 177.921875 127.636719 177.976562 127.492188 178.078125 C 127.355469 178.183594 127.257812 178.328125 127.195312 178.515625 C 127.109375 178.796875 127.070312 179.105469 127.070312 179.4375 L 127.070312 181.875 Z M 126.273438 181.875 "/>
<path style=" stroke:none;fill-rule:nonzero;fill:rgb(47.058824%,47.058824%,47.058824%);fill-opacity:1;" d="M 132.332031 181.296875 C 132.039062 181.546875 131.757812 181.726562 131.488281 181.828125 C 131.214844 181.929688 130.925781 181.984375 130.613281 181.984375 C 130.101562 181.984375 129.707031 181.859375 129.425781 181.609375 C 129.152344 181.359375 129.019531 181.039062 129.019531 180.640625 C 129.019531 180.414062 129.070312 180.203125 129.175781 180.015625 C 129.277344 179.828125 129.414062 179.679688 129.582031 179.5625 C 129.746094 179.449219 129.933594 179.359375 130.144531 179.296875 C 130.300781 179.265625 130.535156 179.230469 130.847656 179.1875 C 131.492188 179.117188 131.964844 179.023438 132.269531 178.90625 C 132.269531 178.804688 132.269531 178.734375 132.269531 178.703125 C 132.269531 178.382812 132.195312 178.15625 132.050781 178.03125 C 131.839844 177.84375 131.539062 177.75 131.144531 177.75 C 130.769531 177.75 130.492188 177.820312 130.316406 177.953125 C 130.136719 178.078125 130.007812 178.308594 129.925781 178.640625 L 129.160156 178.546875 C 129.222656 178.214844 129.332031 177.949219 129.488281 177.75 C 129.652344 177.542969 129.886719 177.386719 130.191406 177.28125 C 130.503906 177.167969 130.855469 177.109375 131.253906 177.109375 C 131.660156 177.109375 131.980469 177.15625 132.222656 177.25 C 132.472656 177.34375 132.652344 177.464844 132.769531 177.609375 C 132.894531 177.746094 132.976562 177.921875 133.019531 178.140625 C 133.050781 178.277344 133.066406 178.515625 133.066406 178.859375 L 133.066406 179.921875 C 133.066406 180.652344 133.082031 181.117188 133.113281 181.3125 C 133.144531 181.511719 133.210938 181.699219 133.316406 181.875 L 132.488281 181.875 C 132.402344 181.710938 132.351562 181.515625 132.332031 181.296875 Z M 132.269531 179.53125 C 131.976562 179.648438 131.542969 179.746094 130.972656 179.828125 C 130.648438 179.882812 130.417969 179.9375 130.285156 180 C 130.148438 180.054688 130.042969 180.136719 129.972656 180.25 C 129.898438 180.367188 129.863281 180.492188 129.863281 180.625 C 129.863281 180.835938 129.941406 181.011719 130.097656 181.15625 C 130.253906 181.292969 130.488281 181.359375 130.800781 181.359375 C 131.101562 181.359375 131.371094 181.292969 131.613281 181.15625 C 131.851562 181.023438 132.027344 180.839844 132.144531 180.609375 C 132.226562 180.433594 132.269531 180.171875 132.269531 179.828125 Z M 132.269531 179.53125 "/>
<path style=" stroke:none;fill-rule:nonzero;fill:rgb(47.058824%,47.058824%,47.058824%);fill-opacity:1;" d="M 137.320312 181.875 L 137.320312 181.28125 C 137.015625 181.75 136.578125 181.984375 136.007812 181.984375 C 135.640625 181.984375 135.304688 181.878906 134.992188 181.671875 C 134.679688 181.464844 134.433594 181.179688 134.257812 180.8125 C 134.089844 180.449219 134.007812 180.027344 134.007812 179.546875 C 134.007812 179.078125 134.085938 178.65625 134.242188 178.28125 C 134.398438 177.898438 134.625 177.605469 134.929688 177.40625 C 135.242188 177.210938 135.589844 177.109375 135.976562 177.109375 C 136.257812 177.109375 136.507812 177.167969 136.726562 177.28125 C 136.945312 177.398438 137.121094 177.554688 137.257812 177.75 L 137.257812 175.4375 L 138.054688 175.4375 L 138.054688 181.875 Z M 134.820312 179.546875 C 134.820312 180.140625 134.945312 180.589844 135.195312 180.890625 C 135.445312 181.183594 135.742188 181.328125 136.085938 181.328125 C 136.429688 181.328125 136.71875 181.1875 136.960938 180.90625 C 137.210938 180.625 137.335938 180.195312 137.335938 179.609375 C 137.335938 178.976562 137.210938 178.507812 136.960938 178.203125 C 136.710938 177.902344 136.40625 177.75 136.054688 177.75 C 135.699219 177.75 135.402344 177.898438 135.164062 178.1875 C 134.933594 178.480469 134.820312 178.933594 134.820312 179.546875 Z M 134.820312 179.546875 "/>
<path style=" stroke:none;fill-rule:nonzero;fill:rgb(47.058824%,47.058824%,47.058824%);fill-opacity:1;" d="M 139.296875 176.34375 L 139.296875 175.4375 L 140.09375 175.4375 L 140.09375 176.34375 Z M 139.296875 181.875 L 139.296875 177.203125 L 140.09375 177.203125 L 140.09375 181.875 Z M 139.296875 181.875 "/>
<path style=" stroke:none;fill-rule:nonzero;fill:rgb(47.058824%,47.058824%,47.058824%);fill-opacity:1;" d="M 141.152344 182.265625 L 141.917969 182.375 C 141.949219 182.613281 142.035156 182.785156 142.183594 182.890625 C 142.378906 183.035156 142.652344 183.109375 142.996094 183.109375 C 143.359375 183.109375 143.640625 183.035156 143.839844 182.890625 C 144.035156 182.742188 144.171875 182.539062 144.246094 182.28125 C 144.285156 182.113281 144.300781 181.777344 144.292969 181.265625 C 143.949219 181.671875 143.519531 181.875 143.011719 181.875 C 142.363281 181.875 141.863281 181.648438 141.511719 181.1875 C 141.167969 180.71875 140.996094 180.164062 140.996094 179.515625 C 140.996094 179.070312 141.074219 178.65625 141.230469 178.28125 C 141.394531 177.90625 141.628906 177.621094 141.933594 177.421875 C 142.234375 177.214844 142.59375 177.109375 143.011719 177.109375 C 143.5625 177.109375 144.015625 177.328125 144.371094 177.765625 L 144.371094 177.203125 L 145.105469 177.203125 L 145.105469 181.234375 C 145.105469 181.960938 145.027344 182.476562 144.871094 182.78125 C 144.722656 183.082031 144.488281 183.320312 144.167969 183.5 C 143.855469 183.675781 143.464844 183.765625 142.996094 183.765625 C 142.433594 183.765625 141.980469 183.640625 141.636719 183.390625 C 141.300781 183.140625 141.140625 182.765625 141.152344 182.265625 Z M 141.808594 179.453125 C 141.808594 180.070312 141.925781 180.515625 142.167969 180.796875 C 142.40625 181.078125 142.707031 181.21875 143.074219 181.21875 C 143.4375 181.21875 143.746094 181.078125 143.996094 180.796875 C 144.246094 180.515625 144.371094 180.078125 144.371094 179.484375 C 144.371094 178.914062 144.238281 178.480469 143.980469 178.1875 C 143.730469 177.898438 143.425781 177.75 143.074219 177.75 C 142.71875 177.75 142.417969 177.898438 142.167969 178.1875 C 141.925781 178.46875 141.808594 178.890625 141.808594 179.453125 Z M 141.808594 179.453125 "/>
<path style=" stroke:none;fill-rule:nonzero;fill:rgb(47.058824%,47.058824%,47.058824%);fill-opacity:1;" d="M 146.300781 181.875 L 146.300781 177.203125 L 147.003906 177.203125 L 147.003906 177.859375 C 147.148438 177.632812 147.339844 177.449219 147.582031 177.3125 C 147.832031 177.179688 148.113281 177.109375 148.425781 177.109375 C 148.769531 177.109375 149.050781 177.183594 149.269531 177.328125 C 149.488281 177.464844 149.644531 177.664062 149.738281 177.921875 C 150.113281 177.382812 150.589844 177.109375 151.175781 177.109375 C 151.644531 177.109375 152.003906 177.242188 152.253906 177.5 C 152.503906 177.75 152.628906 178.140625 152.628906 178.671875 L 152.628906 181.875 L 151.832031 181.875 L 151.832031 178.9375 C 151.832031 178.617188 151.804688 178.386719 151.753906 178.25 C 151.710938 178.117188 151.621094 178.007812 151.488281 177.921875 C 151.351562 177.828125 151.191406 177.78125 151.003906 177.78125 C 150.679688 177.78125 150.410156 177.890625 150.191406 178.109375 C 149.972656 178.328125 149.863281 178.679688 149.863281 179.15625 L 149.863281 181.875 L 149.066406 181.875 L 149.066406 178.84375 C 149.066406 178.492188 149.003906 178.226562 148.878906 178.046875 C 148.753906 177.871094 148.542969 177.78125 148.253906 177.78125 C 148.023438 177.78125 147.816406 177.84375 147.628906 177.96875 C 147.441406 178.085938 147.304688 178.257812 147.222656 178.484375 C 147.136719 178.703125 147.097656 179.027344 147.097656 179.453125 L 147.097656 181.875 Z M 146.300781 181.875 "/>
<path style=" stroke:none;fill-rule:nonzero;fill:rgb(47.058824%,47.058824%,47.058824%);fill-opacity:1;" d="M 156.140625 178.734375 C 156.140625 177.671875 156.425781 176.839844 157 176.234375 C 157.570312 175.621094 158.3125 175.3125 159.21875 175.3125 C 159.8125 175.3125 160.347656 175.460938 160.828125 175.75 C 161.304688 176.03125 161.671875 176.429688 161.921875 176.9375 C 162.171875 177.449219 162.296875 178.023438 162.296875 178.65625 C 162.296875 179.3125 162.164062 179.902344 161.90625 180.421875 C 161.644531 180.933594 161.269531 181.324219 160.78125 181.59375 C 160.300781 181.855469 159.78125 181.984375 159.21875 181.984375 C 158.613281 181.984375 158.070312 181.839844 157.59375 181.546875 C 157.113281 181.257812 156.75 180.855469 156.5 180.34375 C 156.257812 179.835938 156.140625 179.296875 156.140625 178.734375 Z M 157.015625 178.75 C 157.015625 179.53125 157.222656 180.148438 157.640625 180.59375 C 158.054688 181.03125 158.582031 181.25 159.21875 181.25 C 159.851562 181.25 160.378906 181.027344 160.796875 180.578125 C 161.210938 180.132812 161.421875 179.492188 161.421875 178.65625 C 161.421875 178.136719 161.332031 177.683594 161.15625 177.296875 C 160.976562 176.902344 160.71875 176.59375 160.375 176.375 C 160.03125 176.15625 159.648438 176.046875 159.234375 176.046875 C 158.628906 176.046875 158.109375 176.257812 157.671875 176.671875 C 157.234375 177.089844 157.015625 177.78125 157.015625 178.75 Z M 157.015625 178.75 "/>
<path style=" stroke:none;fill-rule:nonzero;fill:rgb(47.058824%,47.058824%,47.058824%);fill-opacity:1;" d="M 163.296875 181.875 L 163.296875 177.203125 L 164.015625 177.203125 L 164.015625 177.875 C 164.347656 177.367188 164.84375 177.109375 165.5 177.109375 C 165.78125 177.109375 166.035156 177.164062 166.265625 177.265625 C 166.503906 177.359375 166.679688 177.492188 166.796875 177.65625 C 166.910156 177.8125 166.992188 178.007812 167.046875 178.234375 C 167.078125 178.382812 167.09375 178.636719 167.09375 179 L 167.09375 181.875 L 166.296875 181.875 L 166.296875 179.03125 C 166.296875 178.710938 166.265625 178.46875 166.203125 178.3125 C 166.140625 178.15625 166.03125 178.03125 165.875 177.9375 C 165.71875 177.835938 165.535156 177.78125 165.328125 177.78125 C 164.992188 177.78125 164.703125 177.890625 164.453125 178.109375 C 164.210938 178.320312 164.09375 178.726562 164.09375 179.328125 L 164.09375 181.875 Z M 163.296875 181.875 "/>
<path style=" stroke:none;fill-rule:nonzero;fill:rgb(47.058824%,47.058824%,47.058824%);fill-opacity:1;" d="M 168.289062 181.875 L 168.289062 175.4375 L 169.070312 175.4375 L 169.070312 181.875 Z M 168.289062 181.875 "/>
<path style=" stroke:none;fill-rule:nonzero;fill:rgb(47.058824%,47.058824%,47.058824%);fill-opacity:1;" d="M 170.304688 176.34375 L 170.304688 175.4375 L 171.101562 175.4375 L 171.101562 176.34375 Z M 170.304688 181.875 L 170.304688 177.203125 L 171.101562 177.203125 L 171.101562 181.875 Z M 170.304688 181.875 "/>
<path style=" stroke:none;fill-rule:nonzero;fill:rgb(47.058824%,47.058824%,47.058824%);fill-opacity:1;" d="M 172.300781 181.875 L 172.300781 177.203125 L 173.019531 177.203125 L 173.019531 177.875 C 173.351562 177.367188 173.847656 177.109375 174.503906 177.109375 C 174.785156 177.109375 175.039062 177.164062 175.269531 177.265625 C 175.507812 177.359375 175.683594 177.492188 175.800781 177.65625 C 175.914062 177.8125 175.996094 178.007812 176.050781 178.234375 C 176.082031 178.382812 176.097656 178.636719 176.097656 179 L 176.097656 181.875 L 175.300781 181.875 L 175.300781 179.03125 C 175.300781 178.710938 175.269531 178.46875 175.207031 178.3125 C 175.144531 178.15625 175.035156 178.03125 174.878906 177.9375 C 174.722656 177.835938 174.539062 177.78125 174.332031 177.78125 C 173.996094 177.78125 173.707031 177.890625 173.457031 178.109375 C 173.214844 178.320312 173.097656 178.726562 173.097656 179.328125 L 173.097656 181.875 Z M 172.300781 181.875 "/>
<path style=" stroke:none;fill-rule:nonzero;fill:rgb(47.058824%,47.058824%,47.058824%);fill-opacity:1;" d="M 180.496094 180.375 L 181.324219 180.46875 C 181.1875 180.949219 180.941406 181.324219 180.589844 181.59375 C 180.246094 181.855469 179.800781 181.984375 179.261719 181.984375 C 178.582031 181.984375 178.042969 181.777344 177.636719 181.359375 C 177.238281 180.933594 177.042969 180.339844 177.042969 179.578125 C 177.042969 178.796875 177.246094 178.195312 177.652344 177.765625 C 178.058594 177.328125 178.582031 177.109375 179.230469 177.109375 C 179.855469 177.109375 180.359375 177.324219 180.746094 177.75 C 181.140625 178.167969 181.339844 178.761719 181.339844 179.53125 C 181.339844 179.585938 181.339844 179.65625 181.339844 179.75 L 177.855469 179.75 C 177.886719 180.261719 178.03125 180.652344 178.292969 180.921875 C 178.550781 181.195312 178.878906 181.328125 179.277344 181.328125 C 179.566406 181.328125 179.8125 181.257812 180.011719 181.109375 C 180.21875 180.953125 180.378906 180.710938 180.496094 180.375 Z M 177.902344 179.09375 L 180.511719 179.09375 C 180.480469 178.699219 180.378906 178.402344 180.214844 178.203125 C 179.964844 177.902344 179.636719 177.75 179.230469 177.75 C 178.863281 177.75 178.558594 177.875 178.308594 178.125 C 178.066406 178.367188 177.933594 178.6875 177.902344 179.09375 Z M 177.902344 179.09375 "/>
<path style=" stroke:none;fill-rule:nonzero;fill:rgb(47.058824%,47.058824%,47.058824%);fill-opacity:1;" d="M 184.953125 181.875 L 184.953125 175.4375 L 189.296875 175.4375 L 189.296875 176.1875 L 185.8125 176.1875 L 185.8125 178.1875 L 188.828125 178.1875 L 188.828125 178.953125 L 185.8125 178.953125 L 185.8125 181.875 Z M 184.953125 181.875 "/>
<path style=" stroke:none;fill-rule:nonzero;fill:rgb(47.058824%,47.058824%,47.058824%);fill-opacity:1;" d="M 190.296875 181.875 L 190.296875 177.203125 L 191.015625 177.203125 L 191.015625 177.921875 C 191.191406 177.589844 191.359375 177.371094 191.515625 177.265625 C 191.671875 177.164062 191.84375 177.109375 192.03125 177.109375 C 192.289062 177.109375 192.5625 177.195312 192.84375 177.359375 L 192.5625 178.09375 C 192.375 177.980469 192.179688 177.921875 191.984375 177.921875 C 191.816406 177.921875 191.660156 177.976562 191.515625 178.078125 C 191.378906 178.183594 191.28125 178.328125 191.21875 178.515625 C 191.132812 178.796875 191.09375 179.105469 191.09375 179.4375 L 191.09375 181.875 Z M 190.296875 181.875 "/>
<path style=" stroke:none;fill-rule:nonzero;fill:rgb(47.058824%,47.058824%,47.058824%);fill-opacity:1;" d="M 196.496094 180.375 L 197.324219 180.46875 C 197.1875 180.949219 196.941406 181.324219 196.589844 181.59375 C 196.246094 181.855469 195.800781 181.984375 195.261719 181.984375 C 194.582031 181.984375 194.042969 181.777344 193.636719 181.359375 C 193.238281 180.933594 193.042969 180.339844 193.042969 179.578125 C 193.042969 178.796875 193.246094 178.195312 193.652344 177.765625 C 194.058594 177.328125 194.582031 177.109375 195.230469 177.109375 C 195.855469 177.109375 196.359375 177.324219 196.746094 177.75 C 197.140625 178.167969 197.339844 178.761719 197.339844 179.53125 C 197.339844 179.585938 197.339844 179.65625 197.339844 179.75 L 193.855469 179.75 C 193.886719 180.261719 194.03125 180.652344 194.292969 180.921875 C 194.550781 181.195312 194.878906 181.328125 195.277344 181.328125 C 195.566406 181.328125 195.8125 181.257812 196.011719 181.109375 C 196.21875 180.953125 196.378906 180.710938 196.496094 180.375 Z M 193.902344 179.09375 L 196.511719 179.09375 C 196.480469 178.699219 196.378906 178.402344 196.214844 178.203125 C 195.964844 177.902344 195.636719 177.75 195.230469 177.75 C 194.863281 177.75 194.558594 177.875 194.308594 178.125 C 194.066406 178.367188 193.933594 178.6875 193.902344 179.09375 Z M 193.902344 179.09375 "/>
<path style=" stroke:none;fill-rule:nonzero;fill:rgb(47.058824%,47.058824%,47.058824%);fill-opacity:1;" d="M 201.5 180.375 L 202.328125 180.46875 C 202.191406 180.949219 201.945312 181.324219 201.59375 181.59375 C 201.25 181.855469 200.804688 181.984375 200.265625 181.984375 C 199.585938 181.984375 199.046875 181.777344 198.640625 181.359375 C 198.242188 180.933594 198.046875 180.339844 198.046875 179.578125 C 198.046875 178.796875 198.25 178.195312 198.65625 177.765625 C 199.0625 177.328125 199.585938 177.109375 200.234375 177.109375 C 200.859375 177.109375 201.363281 177.324219 201.75 177.75 C 202.144531 178.167969 202.34375 178.761719 202.34375 179.53125 C 202.34375 179.585938 202.34375 179.65625 202.34375 179.75 L 198.859375 179.75 C 198.890625 180.261719 199.035156 180.652344 199.296875 180.921875 C 199.554688 181.195312 199.882812 181.328125 200.28125 181.328125 C 200.570312 181.328125 200.816406 181.257812 201.015625 181.109375 C 201.222656 180.953125 201.382812 180.710938 201.5 180.375 Z M 198.90625 179.09375 L 201.515625 179.09375 C 201.484375 178.699219 201.382812 178.402344 201.21875 178.203125 C 200.96875 177.902344 200.640625 177.75 200.234375 177.75 C 199.867188 177.75 199.5625 177.875 199.3125 178.125 C 199.070312 178.367188 198.9375 178.6875 198.90625 179.09375 Z M 198.90625 179.09375 "/>
<path style=" stroke:none;fill-rule:nonzero;fill:rgb(47.058824%,47.058824%,47.058824%);fill-opacity:1;" d="M 205.945312 181.875 L 205.945312 175.4375 L 210.601562 175.4375 L 210.601562 176.1875 L 206.789062 176.1875 L 206.789062 178.171875 L 210.351562 178.171875 L 210.351562 178.921875 L 206.789062 178.921875 L 206.789062 181.109375 L 210.742188 181.109375 L 210.742188 181.875 Z M 205.945312 181.875 "/>
<path style=" stroke:none;fill-rule:nonzero;fill:rgb(47.058824%,47.058824%,47.058824%);fill-opacity:1;" d="M 214.851562 181.875 L 214.851562 181.28125 C 214.546875 181.75 214.109375 181.984375 213.539062 181.984375 C 213.171875 181.984375 212.835938 181.878906 212.523438 181.671875 C 212.210938 181.464844 211.964844 181.179688 211.789062 180.8125 C 211.621094 180.449219 211.539062 180.027344 211.539062 179.546875 C 211.539062 179.078125 211.617188 178.65625 211.773438 178.28125 C 211.929688 177.898438 212.15625 177.605469 212.460938 177.40625 C 212.773438 177.210938 213.121094 177.109375 213.507812 177.109375 C 213.789062 177.109375 214.039062 177.167969 214.257812 177.28125 C 214.476562 177.398438 214.652344 177.554688 214.789062 177.75 L 214.789062 175.4375 L 215.585938 175.4375 L 215.585938 181.875 Z M 212.351562 179.546875 C 212.351562 180.140625 212.476562 180.589844 212.726562 180.890625 C 212.976562 181.183594 213.273438 181.328125 213.617188 181.328125 C 213.960938 181.328125 214.25 181.1875 214.492188 180.90625 C 214.742188 180.625 214.867188 180.195312 214.867188 179.609375 C 214.867188 178.976562 214.742188 178.507812 214.492188 178.203125 C 214.242188 177.902344 213.9375 177.75 213.585938 177.75 C 213.230469 177.75 212.933594 177.898438 212.695312 178.1875 C 212.464844 178.480469 212.351562 178.933594 212.351562 179.546875 Z M 212.351562 179.546875 "/>
<path style=" stroke:none;fill-rule:nonzero;fill:rgb(47.058824%,47.058824%,47.058824%);fill-opacity:1;" d="M 216.828125 176.34375 L 216.828125 175.4375 L 217.625 175.4375 L 217.625 176.34375 Z M 216.828125 181.875 L 216.828125 177.203125 L 217.625 177.203125 L 217.625 181.875 Z M 216.828125 181.875 "/>
<path style=" stroke:none;fill-rule:nonzero;fill:rgb(47.058824%,47.058824%,47.058824%);fill-opacity:1;" d="M 220.5625 181.171875 L 220.671875 181.859375 C 220.441406 181.910156 220.242188 181.9375 220.078125 181.9375 C 219.785156 181.9375 219.5625 181.890625 219.40625 181.796875 C 219.25 181.703125 219.132812 181.585938 219.0625 181.4375 C 219 181.292969 218.96875 180.984375 218.96875 180.515625 L 218.96875 177.828125 L 218.390625 177.828125 L 218.390625 177.203125 L 218.96875 177.203125 L 218.96875 176.046875 L 219.765625 175.578125 L 219.765625 177.203125 L 220.5625 177.203125 L 220.5625 177.828125 L 219.765625 177.828125 L 219.765625 180.546875 C 219.765625 180.777344 219.773438 180.921875 219.796875 180.984375 C 219.828125 181.046875 219.875 181.101562 219.9375 181.140625 C 220 181.183594 220.085938 181.203125 220.203125 181.203125 C 220.296875 181.203125 220.414062 181.195312 220.5625 181.171875 Z M 220.5625 181.171875 "/>
<path style=" stroke:none;fill-rule:nonzero;fill:rgb(47.058824%,47.058824%,47.058824%);fill-opacity:1;" d="M 221.328125 176.34375 L 221.328125 175.4375 L 222.125 175.4375 L 222.125 176.34375 Z M 221.328125 181.875 L 221.328125 177.203125 L 222.125 177.203125 L 222.125 181.875 Z M 221.328125 181.875 "/>
<path style=" stroke:none;fill-rule:nonzero;fill:rgb(47.058824%,47.058824%,47.058824%);fill-opacity:1;" d="M 223.03125 179.546875 C 223.03125 178.683594 223.269531 178.042969 223.75 177.625 C 224.15625 177.28125 224.644531 177.109375 225.21875 177.109375 C 225.863281 177.109375 226.390625 177.320312 226.796875 177.734375 C 227.203125 178.152344 227.40625 178.730469 227.40625 179.46875 C 227.40625 180.074219 227.3125 180.546875 227.125 180.890625 C 226.945312 181.234375 226.6875 181.507812 226.34375 181.703125 C 226 181.890625 225.625 181.984375 225.21875 181.984375 C 224.5625 181.984375 224.03125 181.777344 223.625 181.359375 C 223.226562 180.933594 223.03125 180.328125 223.03125 179.546875 Z M 223.84375 179.546875 C 223.84375 180.140625 223.972656 180.589844 224.234375 180.890625 C 224.492188 181.183594 224.820312 181.328125 225.21875 181.328125 C 225.613281 181.328125 225.941406 181.183594 226.203125 180.890625 C 226.460938 180.589844 226.59375 180.132812 226.59375 179.515625 C 226.59375 178.945312 226.460938 178.507812 226.203125 178.203125 C 225.941406 177.902344 225.613281 177.75 225.21875 177.75 C 224.820312 177.75 224.492188 177.902344 224.234375 178.203125 C 223.972656 178.496094 223.84375 178.945312 223.84375 179.546875 Z M 223.84375 179.546875 "/>
<path style=" stroke:none;fill-rule:nonzero;fill:rgb(47.058824%,47.058824%,47.058824%);fill-opacity:1;" d="M 228.332031 181.875 L 228.332031 177.203125 L 229.050781 177.203125 L 229.050781 177.875 C 229.382812 177.367188 229.878906 177.109375 230.535156 177.109375 C 230.816406 177.109375 231.070312 177.164062 231.300781 177.265625 C 231.539062 177.359375 231.714844 177.492188 231.832031 177.65625 C 231.945312 177.8125 232.027344 178.007812 232.082031 178.234375 C 232.113281 178.382812 232.128906 178.636719 232.128906 179 L 232.128906 181.875 L 231.332031 181.875 L 231.332031 179.03125 C 231.332031 178.710938 231.300781 178.46875 231.238281 178.3125 C 231.175781 178.15625 231.066406 178.03125 230.910156 177.9375 C 230.753906 177.835938 230.570312 177.78125 230.363281 177.78125 C 230.027344 177.78125 229.738281 177.890625 229.488281 178.109375 C 229.246094 178.320312 229.128906 178.726562 229.128906 179.328125 L 229.128906 181.875 Z M 228.332031 181.875 "/>
</g>
</svg>
